<?xml version="1.0" encoding="utf-8"?><!-- Uploaded to: SVG Repo, www.svgrepo.com, Generator: SVG Repo Mixer Tools -->
<svg fill="#000000" width="800px" height="800px" viewBox="0 0 24 24" id="contact-book" data-name="Flat Line" xmlns="http://www.w3.org/2000/svg" class="icon flat-line"><path id="secondary" d="M18,3H4A1,1,0,0,0,3,4V20a1,1,0,0,0,1,1H18a1,1,0,0,0,1-1V4A1,1,0,0,0,18,3ZM14,16H8V15a3,3,0,0,1,3-3,2,2,0,1,1,2-2,2,2,0,0,1-2,2,3,3,0,0,1,3,3Z" style="fill: rgb(44, 169, 188); stroke-width: 2;"></path><path id="primary" d="M21,9H19V7h2Zm0,4H19v2h2ZM11,8a2,2,0,1,0,2,2A2,2,0,0,0,11,8Zm3,7a3,3,0,0,0-3-3h0a3,3,0,0,0-3,3v1h6Zm5,5V4a1,1,0,0,0-1-1H4A1,1,0,0,0,3,4V20a1,1,0,0,0,1,1H18A1,1,0,0,0,19,20Z" style="fill: none; stroke: rgb(0, 0, 0); stroke-linecap: round; stroke-linejoin: round; stroke-width: 2;"></path></svg>