<?xml version="1.0" encoding="utf-8"?>
<!-- Uploaded to: SVG Repo, www.svgrepo.com, Generator: SVG Repo Mixer Tools -->
<svg width="800px" height="800px" viewBox="0 0 1024 1024" class="icon"  version="1.1" xmlns="http://www.w3.org/2000/svg"><path d="M961.6 169.984H64.384a22.528 22.528 0 0 0-22.4 22.4v703.232c0 12.288 10.112 22.4 22.4 22.4h897.216c12.288 0 22.4-10.048 22.4-22.4V457.344h-0.576c0.128-0.96 0.576-1.792 0.576-2.752a22.4 22.4 0 0 0-44.864 0c0 0.96 0.448 1.792 0.576 2.752h-0.576V332.032h0.128a22.272 22.272 0 0 0 44.608 0h0.128V192.384a22.464 22.464 0 0 0-22.4-22.4z" fill="" /><path d="M87.424 870.016a0.64 0.64 0 0 1-0.64-0.64V215.424a0.64 0.64 0 0 1 0.64-0.64h851.136a0.64 0.64 0 0 1 0.64 0.64v653.952a0.64 0.64 0 0 1-0.64 0.64H87.424z" fill="#FFFFFF" /><path d="M331.136 76.032H135.552a22.528 22.528 0 0 0-22.4 22.4v699.2c0 12.288 10.112 22.4 22.4 22.4h75.392v88h44.8v-88h75.392c12.288 0 22.4-10.048 22.4-22.4V98.432a22.464 22.464 0 0 0-22.4-22.4z" fill="" /><path d="M158.528 777.216a0.64 0.64 0 0 1-0.64-0.64V121.408a0.64 0.64 0 0 1 0.64-0.64h149.504a0.64 0.64 0 0 1 0.64 0.64v655.104a0.64 0.64 0 0 1-0.64 0.64H158.528z" fill="#3DDB7A" /><path d="M408 261.312h485.312v165.312H408z" fill="" /><path d="M430.4 283.776h440.512v120.512H430.4z" fill="#239750" /><path d="M408 452.032h137.6v49.984h-137.6zM579.456 452.032h137.6v49.984h-137.6zM755.712 452.032h137.6v49.984h-137.6zM543.04 562.048h60.032v59.84h-60.032zM639.04 562.048h60.032v59.84h-60.032zM735.04 562.048h60.032v59.84h-60.032zM831.04 562.048h60.032v59.84h-60.032z" fill="" /><path d="M543.04 655.488h60.032v60.032h-60.032zM639.04 655.488h60.032v60.032h-60.032zM735.04 655.488h60.032v60.032h-60.032zM831.04 655.488h60.032v60.032h-60.032z" fill="" /><path d="M543.04 749.056h60.032v60.032h-60.032zM639.04 749.056h60.032v60.032h-60.032zM735.04 749.056h60.032v60.032h-60.032zM831.04 749.056h60.032v60.032h-60.032z" fill="" /><path d="M193.984 746.496a10.88 10.88 0 0 1-10.88 10.88h-0.64a10.88 10.88 0 0 1-10.88-10.88V149.504c0-5.952 4.928-10.88 10.88-10.88h0.64c5.952 0 10.88 4.928 10.88 10.88v596.992z" fill="#FFFFFF" /></svg>