<!DOCTYPE svg PUBLIC "-//W3C//DTD SVG 1.1//EN" "http://www.w3.org/Graphics/SVG/1.1/DTD/svg11.dtd">
<!-- Uploaded to: SVG Repo, www.svgrepo.com, Transformed by: SVG Repo Mixer Tools -->
<svg width="800px" height="800px" viewBox="0 0 24 24" fill="none" xmlns="http://www.w3.org/2000/svg" stroke="#ffffff">
<g id="SVGRepo_bgCarrier" stroke-width="0"/>
<g id="SVGRepo_tracerCarrier" stroke-linecap="round" stroke-linejoin="round"/>
<g id="SVGRepo_iconCarrier"> <path d="M2 20V4C2 3.44772 2.44772 3 3 3H8.44792C8.79153 3 9.11108 3.17641 9.29416 3.46719L10.5947 5.53281C10.7778 5.82359 11.0974 6 11.441 6H21C21.5523 6 22 6.44772 22 7V20C22 20.5523 21.5523 21 21 21H3C2.44772 21 2 20.5523 2 20Z" stroke="#ffffff" stroke-width="2"/> <circle cx="12" cy="12" r="2" stroke="#ffffff" stroke-width="2"/> <path d="M15 17C15 16.6494 14.9398 16.3128 14.8293 16C14.4175 14.8348 13.3062 14 12 14C10.6938 14 9.58254 14.8348 9.17071 16C9.06015 16.3128 9 16.6494 9 17" stroke="#ffffff" stroke-width="2" stroke-linecap="round"/> </g>
</svg>