
<svg enable-background="new 0 0 1500 1200" version="1.0" viewBox="0 0 1500 1200" xml:space="preserve" xmlns="http://www.w3.org/2000/svg">

<g clip-rule="evenodd" fill-rule="evenodd">
	<rect width="1500" height="1200" fill="transparent"/>
	
		<path d="m697.55 993.81h-374.68c-14.076 0-25.59-11.514-25.59-25.59 0-14.074 11.514-25.59 25.59-25.59h13.763c8.724 0 15.86-7.137 15.86-15.859v-4e-3c0-8.723-7.137-15.859-15.86-15.859h-184.64c-40.429 0-73.505-33.076-73.505-73.502 0-40.43 33.076-73.506 73.505-73.506h4.176c5.22 0 9.486-4.268 9.486-9.484v-4e-3c0-5.217-4.267-9.488-9.486-9.488h-37.312c-34.877 0-63.41-28.533-63.41-63.41 0-34.876 28.533-63.409 63.41-63.409h-1.02c6.504 0 11.822-5.319 11.822-11.823 0-6.507-5.318-11.826-11.822-11.826h-38.54c-10.714 0-19.478-8.765-19.478-19.478s8.764-19.477 19.478-19.477h38.541c18.52 0 33.672-15.153 33.672-33.677 2e-3 -25.759 21.074-46.83 46.831-46.83h53.085c11.289 0 20.521-9.233 20.521-20.519v-3e-3c0-11.289-9.232-20.522-20.521-20.522h-76.823c-18.811 0-34.202-15.387-34.202-34.197v-5e-3c0-18.811 15.392-34.202 34.202-34.202h201.45c9.842 0 17.891-8.049 17.891-17.891 0-9.841-8.049-17.89-17.891-17.89h-94.188c-19.969 0-36.306-16.337-36.306-36.308s16.337-36.307 36.306-36.307h208.9c7.522 0 13.679-6.154 13.679-13.677v-5e-3c0-7.522-6.156-13.681-13.679-13.681h-57.883c-11.577 0-21.048-9.472-21.048-21.047 0-11.576 9.471-21.048 21.048-21.048h248.36c11.575 0 21.047 9.472 21.047 21.048 0 11.575-9.472 21.047-21.047 21.047h-42.094c-7.524 0-13.681 6.158-13.681 13.681v5e-3c0 7.522 6.156 13.677 13.681 13.677h441.48c20.26 0 36.83 16.575 36.83 36.833 0 20.259-16.57 36.833-36.83 36.833h-150.5c-5.213 0-9.471 4.26-9.471 9.472 0 5.209 4.258 9.472 9.471 9.472h183.12c12.439 0 22.621 10.178 22.621 22.626 0 12.443-10.182 22.626-22.621 22.626h-14.5c-7.396 0-13.447 6.052-13.447 13.446 0 7.4 6.051 13.451 13.447 13.451h110.96c16.641 0 30.256 13.615 30.256 30.256s-13.615 30.256-30.256 30.256h-24.5c-5.771 0-10.492 4.719-10.492 10.49s4.721 10.495 10.492 10.495h124.82c24.895 0 45.252 20.361 45.252 45.253 0 24.891-20.357 45.252-45.252 45.252h-16.584c-6.002 0-10.914 4.912-10.914 10.918s4.912 10.918 10.914 10.918h57.238c34.799 0 63.271 28.473 63.271 63.275 0 34.803-28.473 63.273-63.271 63.273h-5.811c-14.082 0-25.604 11.52-25.604 25.598 0 14.084 11.521 25.6 25.604 25.6h53.326c25.494 0 46.357 20.863 46.357 46.357 0 25.5-20.863 46.357-46.357 46.357h-187.24c-9.258 0-16.838 7.578-16.838 16.834v6e-3c0 9.256 7.58 16.834 16.838 16.834h27.123c20.328 0 36.965 16.635 36.965 36.963v6e-3c0 20.328-16.637 36.959-36.965 36.959h-85.621c-7.527 0-13.682 6.158-13.682 13.682v4e-3c0 7.523 6.154 13.682 13.682 13.682h57.881c11.576 0 21.047 9.467 21.047 21.047 0 11.576-9.471 21.047-21.047 21.047h-248.36c-11.576 0-21.049-9.471-21.049-21.047 0-11.58 9.473-21.047 21.049-21.047h42.096c7.521 0 13.68-6.158 13.68-13.682v-4e-3c0-7.523-6.158-13.682-13.68-13.682h-306.53v1e-3zm203.92 27.367h-5.262c-11.576 0-21.049 9.467-21.049 21.047 0 11.576 9.473 21.047 21.049 21.047h5.262c11.576 0 21.047-9.471 21.047-21.047 0-11.58-9.471-21.047-21.047-21.047zm435.8-101.3h-0.555c-20.328 0-36.965 16.635-36.965 36.963v6e-3c0 20.328 16.637 36.959 36.965 36.959h0.555c20.334 0 36.967-16.631 36.967-36.959v-6e-3c-1e-3 -20.328-16.633-36.963-36.967-36.963zm-152.2-570.12h-0.793c-12.441 0-22.623 10.178-22.623 22.626 0 12.443 10.182 22.626 22.623 22.626h0.793c12.443 0 22.627-10.183 22.627-22.626 0-12.448-10.183-22.626-22.627-22.626zm-443.32-119.97h5.262c11.575 0 21.046-9.472 21.046-21.047 0-11.576-9.471-21.048-21.046-21.048h-5.262c-11.576 0-21.048 9.472-21.048 21.048 0 11.575 9.472 21.047 21.048 21.047z" fill="#1CA593"/>
		
			
				<g fill="#1C0D04">
					<path d="m767.08 845.61s146.38-40.238 174.26-42.852c27.883-2.611 33.693 32.4 19.168 51.74-14.52 19.332-83.063 69.502-99.908 75.77-16.848 6.274-93.524-84.658-93.524-84.658z"/>
					<path d="m717.12 845.61s-146.38-40.238-174.27-42.852c-27.882-2.611-33.69 32.4-19.169 51.74 14.521 19.332 83.068 69.502 99.91 75.77 16.847 6.274 93.525-84.658 93.525-84.658z"/>
				</g>
				<path d="m766.65 347.27s-28.144-26.992-76.382 0.575c-48.241 27.567-117.16 156.78 26.992 256.71 144.15 99.926 40.773 109.11 40.773 109.11s41.347 28.715 88.44-33.305c115.49-152.11-35.313-357.3-79.823-333.08z" fill="#64291F"/>
				<path d="m713.52 601.88c1.243 0.889 2.463 1.779 3.737 2.664 144.15 99.926 40.773 109.11 40.773 109.11 107.38 19.766 97.161-199.67 58.284-222.54-19.527-11.485-109.97 4.021-109.97 4.021l-35.368 15.972c2e-3 -1e-3 -4.619 42.891 42.546 90.77z" fill="#471610"/>
				<rect x="718.51" y="538.64" width="40.402" height="58.218" fill="#E47C6B"/>
				<path d="m794.47 584.84s26.691-1.213 40.035 24.266c13.348 25.476 63.395 118.9 69.156 122.84 0 0 6.705 8.482 7.627 13.086 0.41 2.057 0.979 6.244 0.48 10.572l-0.078 0.707c-2.344 18.738-40.779 106.46-55.143 129.2l0.361 0.098s-5.385 5.156 7.576 32.275c12.963 27.123-12.924 40.455-12.838 32.174 0.082-8.277-0.082-21.572-7.357-31.447-1.855-2.516-4.063-4.686-6.307-6.688 0 0-3.43-0.691-5.049 5.656-1.619 6.346-13.564 9.061-15.098 4.209-1.535-4.846 6.949-4.361 4.871-12.525-2.068-8.102 2.457-13.943 2.523-14.029 8e-3 -0.293 0.025-0.584 0.055-0.885 0.998-9.793 16.102-15.021 16.102-15.021 0.783-2.092 1.832-4.58 3.197-7.539 15.721-34.17 46.316-109.92 18.059-140.9-15.773-17.285-51.752-72.074-62.061-79.959-10.316-7.886-21.264-51.83-6.111-66.091z" fill="#F9A887"/>
				<path d="m911.5 757.51c-3.674 20.998-40.877 105.71-54.953 128l0.361 0.098s-5.385 5.156 7.576 32.275c2.865 5.99 3.828 11.305 3.602 15.863-7.379-3.148-15.186-8.313-23.209-14.301-0.193-0.281-0.387-0.561-0.588-0.836-1.855-2.516-4.063-4.686-6.307-6.688 0 0-0.967-0.193-2.113 0.57-4.439-3.502-8.912-7.123-13.4-10.672 0.764-4.008 2.721-6.531 2.762-6.588 8e-3 -0.293 0.025-0.584 0.055-0.885 0.998-9.793 16.102-15.021 16.102-15.021 0.783-2.092 1.832-4.58 3.197-7.539 2.211-4.818 4.729-10.461 7.326-16.689 2.906 0.139 5.438-0.543 7.316-2.402 10.873-10.728 52.068-94.761 52.273-95.185z" fill="#E47C6B"/>
				<path d="m843.91 626.88c3.859 7.243 8.354 15.617 13.119 24.422-6.324 2.969-15.643 10.878-12.803 31.449 3.508 25.348 30.256 51.783 28.209 67.951-1.742-7.654-4.875-14.408-9.797-19.807-10.076-11.037-28.385-37.375-42.994-57.021 8.924-17.478 19.338-37.523 24.266-46.994z" fill="#E47C6B"/>
				<path d="m677.37 584.84s-26.689-1.213-40.036 24.266c-13.348 25.476-63.394 118.9-69.157 122.84 0 0-6.702 8.482-7.623 13.086-0.411 2.057-0.979 6.244-0.483 10.572l0.078 0.707c2.346 18.738 40.78 106.46 55.144 129.2l-0.362 0.098s5.388 5.156-7.575 32.275c-12.966 27.123 12.924 40.455 12.839 32.174-0.081-8.277 0.083-21.572 7.358-31.447 1.853-2.516 4.061-4.686 6.303-6.688 0 0 3.433-0.691 5.05 5.656 1.62 6.346 13.565 9.061 15.1 4.209 1.533-4.846-6.954-4.361-4.869-12.525 2.065-8.102-2.459-13.943-2.526-14.029-6e-3 -0.293-0.021-0.584-0.054-0.885-0.996-9.793-16.103-15.021-16.103-15.021h-2e-3c-0.783-2.092-1.831-4.58-3.193-7.539-15.725-34.17-46.319-109.92-18.062-140.9 15.771-17.285 51.75-72.074 62.063-79.959 10.313-7.886 21.262-51.83 6.11-66.091z" fill="#F9A887"/>
				<path d="m560.34 757.51c3.675 20.998 40.876 105.71 54.956 128l-0.362 0.098s5.388 5.156-7.575 32.275c-2.864 5.99-3.828 11.305-3.602 15.863 7.381-3.148 15.185-8.313 23.21-14.301 0.19-0.281 0.386-0.561 0.589-0.836 1.853-2.516 4.061-4.686 6.303-6.688 0 0 0.966-0.193 2.114 0.57 4.438-3.502 8.915-7.123 13.402-10.672-0.763-4.008-2.72-6.531-2.763-6.588-6e-3 -0.293-0.021-0.584-0.054-0.885-0.996-9.793-16.103-15.021-16.103-15.021h-2e-3c-0.783-2.092-1.831-4.58-3.193-7.539-2.217-4.818-4.73-10.461-7.332-16.689-2.902 0.139-5.435-0.543-7.315-2.402-10.871-10.728-52.068-94.761-52.273-95.185z" fill="#E47C6B"/>
				<path d="m627.92 626.88c-3.862 7.243-8.354 15.617-13.116 24.422 6.32 2.969 15.64 10.878 12.797 31.449-3.504 25.348-30.253 51.783-28.204 67.951 1.741-7.654 4.873-14.408 9.794-19.807 10.073-11.037 28.388-37.375 42.996-57.021-8.925-17.478-19.337-37.523-24.267-46.994z" fill="#E47C6B"/>
				<path d="m802.67 661.01s17.5 23.223 20.998 25.129c3.502 1.912 6.842-2.224 8.908-8.111 2.068-5.887 15.568-31.164 24.488-32.919 0 0 2.713-2.71 0.963-6.368-1.752-3.658-17.604-53.896-60.184-53.896h-8.172l12.999 76.165z" fill="#DB4342"/>
				<path d="m738.46 584.84h53.167s26.727-0.411 21.973 33.799c-4.762 34.211-14.541 201.19-14.541 201.19s-2.742 6.922-12.082 6.922-48.517 0-48.517 0-39.179 0-48.516 0c-9.34 0-12.084-6.922-12.084-6.922s-14.354-166.98-19.111-201.19c-4.763-34.21 21.97-33.799 21.97-33.799h57.741z" fill="#F16464"/>
				<path d="m781.78 584.84h9.842s26.727-0.411 21.973 33.803c-4.762 34.207-14.537 201.18-14.537 201.18s-2.746 6.922-12.086 6.922h-5.184c-38.202-2.969-77.736-10.01-104.84-17.41-0.521-5.992-1.241-14.25-2.103-24.021 88.685-15.385 114.5-97.436 119.74-142.79 5.485-47.556-12.804-57.685-12.804-57.685z" fill="#DB4342"/>
				<path d="m794.15 585.04c-2.266 28.633-26.219 51.164-55.434 51.164-29.285 0-53.283-22.639-55.451-51.365h108.36c1e-3 0 0.98-0.013 2.524 0.201z" fill="#fff"/>
				<path d="m794.15 585.04c-0.375 4.683-1.328 9.204-2.783 13.487-4.07-10.63-9.582-13.688-9.582-13.688h10.047l0.02 4e-3h0.139l0.029 4e-3h0.101l0.037 4e-3h0.074l0.037 5e-3h0.016l0.025 4e-3h0.045l0.041 4e-3h0.041l0.049 4e-3h0.025l0.018 5e-3h0.049l0.098 8e-3 0.051 4e-3 0.041 4e-3h8e-3l0.053 4e-3 0.055 5e-3 0.057 4e-3 0.053 9e-3 0.055 3e-3h8e-3l0.049 5e-3 0.063 4e-3 0.057 9e-3 0.063 4e-3 0.057 8e-3h0.025l0.041 4e-3 0.061 9e-3 0.063 8e-3 0.066 4e-3 0.066 9e-3 0.039 4e-3 0.029 4e-3 0.07 8e-3 0.066 0.013 0.07 9e-3 0.068 8e-3 0.14 0.016z" fill="#BDBBBD"/>
				<path d="m738.71 578.96 20.154 5.879h18.01c0 21.076-17.09 38.16-38.164 38.16-21.076 0-38.163-17.084-38.163-38.16h17.946l20.217-5.879z" fill="#E47C6B"/>
				<path d="m672.54 661.01s-17.498 23.223-20.996 25.129c-3.501 1.912-6.843-2.224-8.911-8.111-2.067-5.887-15.565-31.164-24.483-32.919 0 0-2.713-2.71-0.965-6.368 1.749-3.658 17.605-53.896 60.182-53.896l-4.827 76.165z" fill="#F16464"/>
				<path d="m664.42 671.51c-5.077 6.426-10.997 13.604-12.875 14.627-3.501 1.912-6.843-2.224-8.911-8.111-0.525-1.496-1.792-4.25-3.531-7.547 10.378-2.33 21.591-7.893 23.131-20.949l2.186 21.98z" fill="#DB4342"/>
				
					<path d="m601 923.07h281.76c6.326 0 11.498 5.172 11.498 11.494v12.283c0 6.326-5.172 11.498-11.498 11.498h-281.76c-6.323 0-11.497-5.172-11.497-11.498v-12.283c0-6.322 5.174-11.494 11.497-11.494z" fill="#BAC6C9"/>
					<path d="m605.85 938.75h272.07c1.76 0 3.191 1.436 3.191 3.191v3.416c0 1.754-1.432 3.189-3.191 3.189h-272.07c-1.757 0-3.193-1.436-3.193-3.189v-3.416c-1e-3 -1.755 1.436-3.191 3.193-3.191z" fill="#CFD6D8"/>
					<path d="m616.68 721.88h250.85c8.619 0 15.674 7.053 15.674 15.678v185.52c0 8.625-7.055 15.678-15.674 15.678h-250.85c-8.622 0-15.677-7.053-15.677-15.678v-185.52c0-8.625 7.055-15.678 15.677-15.678z" fill="#fff"/>
					<path d="m811.25 721.88h56.27c8.619 0 15.674 7.053 15.674 15.678v185.52c0 8.619-7.055 15.678-15.674 15.678h-250.85c-8.622 0-15.677-7.059-15.677-15.678v-5.764c245.15 11.437 297.8-142.02 210.25-195.43z" fill="#E2E1E3"/>
					<path d="m742.1 808.89c4.631 0 8.919 1.473 12.423 3.967-3.28 2.734-5.369 6.85-5.369 11.453 0 7.42 5.428 13.574 12.53 14.705-3.333 7.498-10.849 12.727-19.584 12.727-11.834 0-21.426-9.59-21.426-21.426 0-11.833 9.592-21.426 21.426-21.426z" fill="#BAC4C6"/>
				
				<rect x="720.22" y="532.29" width="36.467" height="52.546" fill="#E47C6B"/>
				<path d="m680.26 354.81c-13.712 11.174-27.783 29.327-37.396 51.769 92.369 34.279 164.01 13.66 200.2-2.891-5.918-9.06-12.068-17.298-18.26-24.525-52.536 12.172-108.72-7.31-144.55-24.353z" fill="#7A423C"/>
				<path d="m670.98 511.11c10.851 0 19.699-8.852 19.699-19.7s-8.849-19.699-19.699-19.699-19.699 8.852-19.699 19.699c-1e-3 10.849 8.848 19.7 19.699 19.7z" fill="#E47C6B"/>
				<path d="m805.93 511.11c10.854 0 19.699-8.852 19.699-19.7s-8.846-19.699-19.699-19.699c-10.844 0-19.699 8.852-19.699 19.699-1e-3 10.849 8.855 19.7 19.699 19.7z" fill="#E47C6B"/>
				<path d="m738.45 377.13h2e-3c37.113 0 67.476 30.363 67.476 67.476v56.282c0 37.116-30.362 67.479-67.476 67.479h-2e-3c-37.115 0-67.478-30.362-67.478-67.479v-56.282c1e-3 -37.113 30.363-67.476 67.478-67.476z" fill="#F9A887"/>
				<path d="m788.69 399.68c10.705 11.954 17.24 27.715 17.24 44.928v56.285c0 37.109-30.362 67.476-67.476 67.476h-2e-3c-3.483 0-6.908-0.267-10.257-0.781 81.191-4.192 79.922-91.762 28.31-125.59-19.634-12.871-35.813-0.494-35.813-0.494l-35.685-7.26 47.414-56.84 0.848-0.078c3.922 1.48 27.369 10.371 55.421 22.35z" fill="#F08E77"/>
				<path d="m700.77 488.24c3.632 0 6.606 2.968 6.606 6.602v8.616c0 3.634-2.975 6.603-6.606 6.603-3.634 0-6.605-2.969-6.605-6.603v-8.616c-1e-3 -3.634 2.971-6.602 6.605-6.602z" fill="#64291F"/>
				<path d="m776.14 488.24c3.629 0 6.602 2.968 6.602 6.602v8.616c0 3.634-2.973 6.603-6.602 6.603-3.634 0-6.605-2.969-6.605-6.603v-8.616c-1e-3 -3.634 2.971-6.602 6.605-6.602z" fill="#64291F"/>
				<path d="m691.43 461.21h18.668c1.974 0 3.586 1.615 3.586 3.589s-1.612 3.589-3.586 3.589h-18.668c-1.973 0-3.588-1.615-3.588-3.589s1.615-3.589 3.588-3.589z" fill="#64291F"/>
				<path d="m766.81 461.21h18.667c1.973 0 3.584 1.615 3.584 3.589s-1.611 3.589-3.584 3.589h-18.667c-1.974 0-3.589-1.615-3.589-3.589s1.615-3.589 3.589-3.589z" fill="#64291F"/>
				<path d="m759.92 533.16c0 11.855-9.611 21.463-21.463 21.463-11.855 0-21.465-9.607-21.465-21.463h0.037c0-2.039 1.667-3.708 3.706-3.708h35.439c2.039 0 3.709 1.669 3.709 3.708h0.037z" fill="#fff"/>
				<g fill="#E47C6B">
					<path d="m696.46 536.04c5.377 0 9.763-4.387 9.763-9.764 0-5.381-4.386-9.767-9.763-9.767-5.379 0-9.764 4.386-9.764 9.767 0 5.377 4.385 9.764 9.764 9.764z"/>
					<path d="m780.45 536.04c5.381 0 9.764-4.387 9.764-9.764 0-5.381-4.383-9.767-9.764-9.767-5.377 0-9.764 4.386-9.764 9.767 1e-3 5.377 4.387 9.764 9.764 9.764z"/>
				</g>
				<path d="m748.27 411.01s-46.518 63.748-102.22 72.359l18.376-97.053s68.916-38.478 72.935-38.478c4.021 0 43.071 17.805 50.538 24.693 7.465 6.891 39.053 45.943 39.053 45.943l9.76 40.2-12.777 24.702c-1e-3 2e-3 -41.185-5.396-75.661-72.366z" fill="#64291F"/>
				<path d="m748.27 411.01s-4.208 5.764-11.602 14.056c-23.323-0.489-49.19-4.188-77.15-12.843l4.904-25.906s19.993-11.161 39.069-21.463c27.052 10.532 60.337 19.362 93.815 17.956 7.955 9.188 18.348 21.816 24.477 29.323-17.676 6.01-39.875 11.219-65.848 12.62-2.578-4.268-5.14-8.834-7.665-13.743z" fill="#7A423C"/>
			
			
				<path d="m938.88 560.48h116.02c2.352 0 4.275 1.924 4.275 4.275v169.3c0 2.355-1.924 4.275-4.275 4.275h-116.02c-2.35 0-4.275-1.92-4.275-4.275v-169.3c-1e-3 -2.352 1.925-4.275 4.275-4.275z" fill="#083A47"/>
				<path d="m938.88 560.48h116.02c2.352 0 4.275 1.924 4.275 4.275v17.167h-124.58v-17.167c0-2.352 1.926-4.275 4.276-4.275z" fill="#fff"/>
				<path d="m947.37 574.68c1.922 0 3.486-1.566 3.486-3.485 0-1.92-1.564-3.482-3.486-3.482-1.918 0-3.484 1.563-3.484 3.482 0 1.918 1.566 3.485 3.484 3.485z" fill="#F16464"/>
				<path d="m960.98 574.68c1.922 0 3.486-1.566 3.486-3.485 0-1.92-1.564-3.482-3.486-3.482s-3.484 1.563-3.484 3.482c0 1.918 1.563 3.485 3.484 3.485z" fill="#33A4AC"/>
				<path d="m974.6 574.68c1.916 0 3.486-1.566 3.486-3.485 0-1.92-1.57-3.482-3.486-3.482-1.922 0-3.484 1.563-3.484 3.482-1e-3 1.918 1.562 3.485 3.484 3.485z" fill="#F79222"/>
				<path d="m957.66 590.74h9.574c1.916 0 3.482 1.566 3.482 3.486 0 1.916-1.566 3.481-3.482 3.481h-9.574c-1.92 0-3.486-1.565-3.486-3.481 0-1.919 1.566-3.486 3.486-3.486z" fill="#F16464"/>
				<path d="m957.66 607.97h3.521c1.916 0 3.482 1.566 3.482 3.486 0 1.916-1.566 3.482-3.482 3.482h-3.521c-1.92 0-3.486-1.566-3.486-3.482 0-1.92 1.566-3.486 3.486-3.486z" fill="#F79222"/>
				<path d="m971.32 607.97h13.668c1.916 0 3.486 1.566 3.486 3.486 0 1.916-1.57 3.482-3.486 3.482h-13.668c-1.92 0-3.486-1.566-3.486-3.482 0-1.92 1.566-3.486 3.486-3.486z" fill="#fff"/>
				<path d="m961.59 621.72h3.52c1.916 0 3.486 1.565 3.486 3.481 0 1.92-1.57 3.486-3.486 3.486h-3.52c-1.92 0-3.486-1.566-3.486-3.486-1e-3 -1.916 1.566-3.481 3.486-3.481z" fill="#fff"/>
				<path d="m975.26 621.72h13.664c1.916 0 3.486 1.565 3.486 3.481 0 1.92-1.57 3.486-3.486 3.486h-13.664c-1.92 0-3.484-1.566-3.484-3.486-1e-3 -1.916 1.564-3.481 3.484-3.481z" fill="#fff"/>
				<path d="m965.52 635.46h3.52c1.92 0 3.486 1.571 3.486 3.487 0 1.918-1.566 3.484-3.486 3.484h-3.52c-1.916 0-3.486-1.566-3.486-3.484 0-1.916 1.57-3.487 3.486-3.487z" fill="#33A4AC"/>
				<path d="m979.19 635.46h28.566c1.92 0 3.482 1.571 3.482 3.487 0 1.918-1.563 3.484-3.482 3.484h-28.566c-1.92 0-3.486-1.566-3.486-3.484-1e-3 -1.916 1.566-3.487 3.486-3.487z" fill="#fff"/>
				<path d="m969.45 649.2h3.52c1.92 0 3.486 1.57 3.486 3.486 0 1.92-1.566 3.486-3.486 3.486h-3.52c-1.916 0-3.484-1.566-3.484-3.486 0-1.916 1.568-3.486 3.484-3.486z" fill="#F79222"/>
				<path d="m983.12 649.2h19.633c1.924 0 3.486 1.57 3.486 3.486 0 1.92-1.563 3.486-3.486 3.486h-19.633c-1.916 0-3.486-1.566-3.486-3.486 0-1.916 1.57-3.486 3.486-3.486z" fill="#fff"/>
				<path d="m973.39 662.95h3.52c1.92 0 3.486 1.57 3.486 3.486 0 1.92-1.566 3.486-3.486 3.486h-3.52c-1.918 0-3.484-1.566-3.484-3.486-1e-3 -1.916 1.566-3.486 3.484-3.486z" fill="#F16464"/>
				<path d="m987.05 662.95h24.52c1.92 0 3.482 1.57 3.482 3.486 0 1.92-1.563 3.486-3.482 3.486h-24.52c-1.916 0-3.482-1.566-3.482-3.486-1e-3 -1.916 1.566-3.486 3.482-3.486z" fill="#fff"/>
				<path d="m971.53 676.7h3.52c1.916 0 3.486 1.568 3.486 3.484 0 1.92-1.57 3.486-3.486 3.486h-3.52c-1.918 0-3.484-1.566-3.484-3.486 0-1.915 1.566-3.484 3.484-3.484z" fill="#F79222"/>
				<path d="m985.2 676.7h13.666c1.916 0 3.484 1.568 3.484 3.484 0 1.92-1.568 3.486-3.484 3.486h-13.666c-1.918 0-3.484-1.566-3.484-3.486 0-1.915 1.566-3.484 3.484-3.484z" fill="#fff"/>
				<path d="m961.59 690.44h3.52c1.918 0 3.486 1.566 3.486 3.486 0 1.914-1.568 3.484-3.486 3.484h-3.52c-1.916 0-3.486-1.57-3.486-3.484-1e-3 -1.919 1.57-3.486 3.486-3.486z" fill="#F16464"/>
				<path d="m979.26 690.44h13.664c1.914 0 3.484 1.566 3.484 3.486 0 1.914-1.57 3.484-3.484 3.484h-13.664c-1.922 0-3.488-1.57-3.488-3.484-1e-3 -1.919 1.566-3.486 3.488-3.486z" fill="#fff"/>
				<path d="m967.29 704.19h3.52c1.92 0 3.486 1.566 3.486 3.486 0 1.916-1.566 3.486-3.486 3.486h-3.52c-1.916 0-3.486-1.57-3.486-3.486 0-1.919 1.57-3.486 3.486-3.486z" fill="#F79222"/>
				<path d="m980.96 704.19h42.449c1.92 0 3.486 1.566 3.486 3.486 0 1.916-1.566 3.486-3.486 3.486h-42.449c-1.914 0-3.484-1.57-3.484-3.486 0-1.919 1.57-3.486 3.484-3.486z" fill="#fff"/>
				<path d="m958.04 717.94h3.52c1.92 0 3.486 1.566 3.486 3.484 0 1.916-1.566 3.486-3.486 3.486h-3.52c-1.914 0-3.484-1.57-3.484-3.486 0-1.917 1.57-3.484 3.484-3.484z" fill="#F16464"/>
				<path d="m1036.5 704.19h3.523c1.916 0 3.482 1.566 3.482 3.486 0 1.916-1.566 3.486-3.482 3.486h-3.523c-1.914 0-3.484-1.57-3.484-3.486 0-1.919 1.57-3.486 3.484-3.486z" fill="#33A4AC"/>
				<path d="m1004 690.44h1.299c1.92 0 3.486 1.566 3.486 3.486 0 1.914-1.566 3.484-3.486 3.484h-1.299c-1.916 0-3.486-1.57-3.486-3.484-1e-3 -1.919 1.57-3.486 3.486-3.486z" fill="#33A4AC"/>
				<path d="m1018.2 690.44h1.299c1.92 0 3.486 1.566 3.486 3.486 0 1.914-1.566 3.484-3.486 3.484h-1.299c-1.916 0-3.486-1.57-3.486-3.484-1e-3 -1.919 1.57-3.486 3.486-3.486z" fill="#fff"/>
				<path d="m1001.2 621.72h3.52c1.914 0 3.486 1.565 3.486 3.481 0 1.92-1.572 3.486-3.486 3.486h-3.52c-1.92 0-3.486-1.566-3.486-3.486 0-1.916 1.567-3.481 3.486-3.481z" fill="#fff"/>
				<path d="m1019.9 621.72h3.52c1.916 0 3.486 1.565 3.486 3.481 0 1.92-1.57 3.486-3.486 3.486h-3.52c-1.92 0-3.486-1.566-3.486-3.486 0-1.916 1.566-3.481 3.486-3.481z" fill="#33A4AC"/>
			
			
				<path d="m1081.6 549.89h6.576c2.098 0 3.816 1.714 3.816 3.811v159.77c0 3.488-5.064 16.578-7.104 16.578s-7.104-13.09-7.104-16.578v-159.77c2e-3 -2.097 1.718-3.81 3.816-3.81z" fill="#F79222"/>
				<path d="m1081.6 549.89h6.576c2.098 0 3.816 1.714 3.816 3.811v26.778h-14.207v-26.778c1e-3 -2.098 1.717-3.811 3.815-3.811z" fill="#F16464"/>
				<rect x="1077.8" y="569.96" width="14.207" height="15.654" fill="#fff"/>
				<path d="m1092 710.16v3.303c0 3.488-5.064 16.578-7.104 16.578s-7.104-13.09-7.104-16.578v-3.303c1.988-1.475 4.447-2.352 7.104-2.352 2.654 1e-3 5.113 0.877 7.104 2.352z" fill="#fff"/>
				<path d="m1088.6 724.46c-1.371 3.094-2.836 5.59-3.723 5.59-0.889 0-2.354-2.496-3.725-5.59 1.068-0.713 2.348-1.127 3.725-1.127s2.654 0.414 3.723 1.127z" fill="#64291F"/>
				<path d="m1088.3 553.7v16.254h3.684v-16.254c0-1.209-0.568-2.29-1.455-2.988-0.721-0.469-1.652-0.708-2.697-0.822h-3.684c2.343 0.257 4.152 1.15 4.152 3.81z" fill="#DB4342"/>
				<polygon points="1092 569.96 1088.3 569.96 1088.3 580.48 1088.3 585.61 1092 585.61" fill="#C6C6C9"/>
				<path d="m1092 585.61h-3.684v122.7c1.34 0.402 2.582 1.033 3.684 1.85v-124.55z" fill="#DF8127"/>
				<path d="m1092 710.16c-1.102-0.816-2.344-1.447-3.684-1.85v5.152c0 2.662-2.961 10.934-5.262 14.688 0.711 1.158 1.359 1.891 1.842 1.891 2.039 0 7.104-13.09 7.104-16.578v-3.303z" fill="#C6C6C9"/>
				<path d="m1085.4 723.35c-0.77 1.85-1.6 3.572-2.355 4.807 0.711 1.158 1.359 1.891 1.842 1.891 0.887 0 2.352-2.496 3.723-5.59-0.933-0.624-2.031-1.022-3.21-1.108z" fill="#441D11"/>
			
			
				<path d="m952.66 358.24h88.482c4.029 0 7.326 3.296 7.326 7.325v106.37c0 4.033-3.297 7.33-7.326 7.33h-88.482c-4.027 0-7.326-3.297-7.326-7.33v-106.37c0-4.03 3.299-7.326 7.326-7.326z" fill="#fff"/>
				<rect x="956.34" y="369.24" width="81.115" height="82.167" fill="#33A4AC"/>
				<path d="m956.34 426.55v24.857h64.318l0.223-0.218c1.611-1.615 1.611-4.259 0-5.874l-38.717-38.716c-1.619-1.616-4.258-1.616-5.873 0l-19.951 19.951z" fill="#083A47"/>
				<path d="m976.73 451.41h60.721v-15.301l-19.773-19.772c-1.615-1.615-4.258-1.615-5.873 0l-35.075 35.073z" fill="#135B67"/>
				<path d="m1019.7 402.24c5.797 0 10.523-4.728 10.523-10.524s-4.727-10.523-10.523-10.523c-5.795 0-10.523 4.727-10.523 10.523s4.728 10.524 10.523 10.524z" fill="#fff"/>
			
			
				
					<rect x="1207.8" y="616.32" width="18.309" height="13.159" fill="#33A4AC"/>
					<path d="m1216.5 621.33c30.721 0 55.781-25.057 55.781-55.776 0-30.725-25.061-55.78-55.781-55.78s-55.779 25.056-55.779 55.78c0 30.719 25.058 55.776 55.779 55.776z" fill="#083A47"/>
					<path d="m1216.5 605.81c22.17 0 40.258-18.083 40.258-40.253 0-22.174-18.088-40.258-40.258-40.258s-40.258 18.084-40.258 40.258c0 22.17 18.088 40.253 40.258 40.253z" fill="#F79222"/>
					<rect x="1204.7" y="629.41" width="24.471" height="68.805" fill="#083A47"/>
					<rect x="1221.6" y="629.42" width="7.621" height="68.799" fill="#08313D"/>
					<path d="m1202.9 625.4h28.02c1.92 0 3.486 1.567 3.486 3.486 0 1.916-1.566 3.486-3.486 3.486h-28.02c-1.924 0-3.49-1.57-3.49-3.486-1e-3 -1.918 1.566-3.486 3.49-3.486z" fill="#fff"/>
					<path d="m1202.9 696.37h28.02c1.92 0 3.486 1.57 3.486 3.486 0 1.918-1.566 3.486-3.486 3.486h-28.02c-1.924 0-3.49-1.568-3.49-3.486-1e-3 -1.916 1.566-3.486 3.49-3.486z" fill="#fff"/>
					<path d="m1250.9 558.97c0 22.231-18.025 40.258-40.258 40.258-10.285 0-19.67-3.86-26.785-10.211 7.305 10.166 19.23 16.788 32.705 16.788 22.23 0 40.258-18.021 40.258-40.253 0-11.946-5.199-22.676-13.463-30.047 4.748 6.606 7.543 14.709 7.543 23.465z" fill="#F58231"/>
					<path d="m1268.5 558.71c0 30.803-24.973 55.775-55.775 55.775-19.555 0-36.764-10.063-46.721-25.298 7.828 16.715 23.707 28.903 42.646 31.583 2.574 0.367 5.213 0.557 7.885 0.557 2.961 0 5.857-0.23 8.691-0.671 26.678-4.173 47.094-27.259 47.094-55.105 0-11.252-3.336-21.722-9.063-30.482 3.366 7.177 5.243 15.19 5.243 23.641z" fill="#08313D"/>
				
				<path d="m1187.3 562.01c0 1.645-1.34 2.984-2.982 2.984-1.65 0-2.986-1.34-2.986-2.984 0-4e-3 0.131-1.39 0.602-3.321 0.377-1.596 1.98-2.582 3.576-2.204 1.594 0.378 2.58 1.982 2.203 3.577-0.321 1.332-0.413 1.948-0.413 1.948zm3.996-10.923c-0.814 1.419-2.631 1.912-4.053 1.094s-1.912-2.635-1.094-4.054c2.523-4.398 6.348-9.08 12.104-12.693 4.504-2.829 10.178-4.999 17.281-5.851 1.637-0.192 3.121 0.979 3.313 2.61 0.189 1.633-0.977 3.116-2.609 3.31-6.162 0.735-11.014 2.573-14.82 4.966-4.801 3.017-8.004 6.935-10.122 10.618z" fill="#fff"/>
			
			
				<path d="m1212.9 729.72h8.658c2.039 1.385-0.305 5.146-1.357 6.639-0.168 0.189-0.316 0.395-0.447 0.607l-8e-3 0.01v4e-3l-4e-3 4e-3c-0.391 0.645-0.617 1.402-0.617 2.213 0 2.359 1.916 4.273 4.275 4.273 2.363 0 4.275-1.914 4.275-4.273 0-0.811-0.223-1.568-0.617-2.213h4e-3l-4e-3 -4e-3v-4e-3l-8e-3 -0.01c-0.133-0.213-0.279-0.418-0.445-0.607-1.057-1.492-3.398-5.254-1.363-6.639h13.188c2.037 1.385-0.305 5.146-1.357 6.639-0.168 0.189-0.316 0.395-0.447 0.607l-8e-3 0.01v4e-3l-6e-3 4e-3c-0.391 0.645-0.617 1.402-0.617 2.213 0 2.359 1.916 4.273 4.277 4.273 2.363 0 4.275-1.914 4.275-4.273 0-0.811-0.223-1.568-0.613-2.213l-4e-3 -4e-3v-4e-3l-8e-3 -0.01c-0.133-0.213-0.279-0.418-0.443-0.607-1.053-1.492-3.4-5.254-1.365-6.639h13.191c2.035 1.385-0.309 5.146-1.361 6.639-0.168 0.189-0.316 0.395-0.447 0.607l-0.01 0.01v4e-3l-4e-3 4e-3c-0.391 0.645-0.615 1.402-0.615 2.213 0 2.359 1.916 4.273 4.275 4.273 2.363 0 4.273-1.914 4.273-4.273 0-0.811-0.221-1.568-0.611-2.213l-4e-3 -4e-3v-4e-3l-8e-3 -0.01c-0.131-0.213-0.281-0.418-0.445-0.607-1.051-1.492-3.398-5.254-1.365-6.639h13.193c2.035 1.385-0.309 5.146-1.361 6.639-0.164 0.189-0.316 0.395-0.447 0.607l-6e-3 0.01-4e-3 4e-3 -2e-3 4e-3c-0.389 0.645-0.617 1.402-0.617 2.213 0 2.359 1.916 4.273 4.275 4.273 2.363 0 4.279-1.914 4.279-4.273 0-0.811-0.227-1.568-0.617-2.213l-4e-3 -4e-3v-4e-3l-8e-3 -0.01c-0.133-0.213-0.279-0.418-0.445-0.607-1.053-1.492-3.398-5.254-1.363-6.639h13.191c2.035 1.385-0.309 5.146-1.361 6.639-0.164 0.189-0.316 0.395-0.447 0.607l-4e-3 0.01-4e-3 4e-3 -6e-3 4e-3c-0.387 0.645-0.611 1.402-0.611 2.213 0 2.359 1.91 4.273 4.275 4.273 2.359 0 4.275-1.914 4.275-4.273 0-0.811-0.227-1.568-0.617-2.213h4e-3l-8e-3 -4e-3v-4e-3l-0.01-0.01c-0.131-0.213-0.279-0.418-0.443-0.607-1.051-1.492-3.398-5.254-1.365-6.639h8.658c4.033 0 7.33 3.297 7.33 7.33v106.37c0 4.033-3.297 7.33-7.33 7.33h-88.482c-4.029 0-7.324-3.297-7.324-7.33v-106.37c-1e-3 -4.034 3.294-7.33 7.323-7.33z" fill="#fff"/>
				<g fill="#083A47">
					<path d="m1223.6 757.59h4.982c1.518 0 2.754 1.236 2.754 2.754s-1.236 2.754-2.754 2.754h-4.982c-1.516 0-2.754-1.236-2.754-2.754s1.239-2.754 2.754-2.754z"/>
					<path d="m1237.2 757.59h15.135c1.514 0 2.75 1.236 2.75 2.754s-1.236 2.754-2.75 2.754h-15.135c-1.514 0-2.752-1.236-2.752-2.754s1.239-2.754 2.752-2.754z"/>
					<path d="m1227.5 768.45h4.984c1.518 0 2.752 1.238 2.752 2.752v4e-3c0 1.512-1.234 2.75-2.752 2.75h-4.984c-1.514 0-2.756-1.238-2.756-2.75v-4e-3c0-1.513 1.242-2.752 2.756-2.752z"/>
					<path d="m1241.2 768.45h15.139c1.514 0 2.746 1.238 2.746 2.752v4e-3c0 1.512-1.232 2.75-2.746 2.75h-15.139c-1.514 0-2.75-1.238-2.75-2.75v-4e-3c0-1.513 1.236-2.752 2.75-2.752z"/>
					<path d="m1231.4 779.3h4.99c1.514 0 2.75 1.238 2.75 2.75v4e-3c0 1.514-1.236 2.752-2.75 2.752h-4.99c-1.514 0-2.756-1.238-2.756-2.752v-4e-3c1e-3 -1.512 1.243-2.75 2.756-2.75z"/>
					<path d="m1245.1 779.3h30.033c1.514 0 2.754 1.238 2.754 2.75v4e-3c0 1.514-1.24 2.752-2.754 2.752h-30.033c-1.514 0-2.754-1.238-2.754-2.752v-4e-3c0-1.512 1.24-2.75 2.754-2.75z"/>
					<path d="m1235.4 790.16h4.99c1.512 0 2.75 1.238 2.75 2.75v4e-3c0 1.514-1.238 2.75-2.75 2.75h-4.99c-1.514 0-2.752-1.236-2.752-2.75v-4e-3c0-1.512 1.238-2.75 2.752-2.75z"/>
					<path d="m1249 790.16h21.105c1.514 0 2.75 1.238 2.75 2.75v4e-3c0 1.514-1.236 2.75-2.75 2.75h-21.105c-1.514 0-2.75-1.236-2.75-2.75v-4e-3c0-1.512 1.237-2.75 2.75-2.75z"/>
					<path d="m1239.3 801.02h4.986c1.514 0 2.754 1.236 2.754 2.75v4e-3c0 1.512-1.24 2.75-2.754 2.75h-4.986c-1.516 0-2.75-1.238-2.75-2.75v-4e-3c0-1.514 1.234-2.75 2.75-2.75z"/>
					<path d="m1253 801.02h25.984c1.514 0 2.754 1.236 2.754 2.75v4e-3c0 1.512-1.24 2.75-2.754 2.75h-25.984c-1.516 0-2.75-1.238-2.75-2.75v-4e-3c0-1.514 1.234-2.75 2.75-2.75z"/>
					<path d="m1237.4 811.87h4.986c1.512 0 2.75 1.242 2.75 2.754 0 1.518-1.238 2.754-2.75 2.754h-4.986c-1.518 0-2.754-1.236-2.754-2.754 0-1.512 1.237-2.754 2.754-2.754z"/>
					<path d="m1251.1 811.87h15.137c1.516 0 2.75 1.242 2.75 2.754 0 1.518-1.234 2.754-2.75 2.754h-15.137c-1.512 0-2.75-1.236-2.75-2.754 0-1.512 1.239-2.754 2.75-2.754z"/>
					<path d="m1227.5 822.73h4.99c1.512 0 2.75 1.236 2.75 2.754 0 1.512-1.238 2.75-2.75 2.75h-4.99c-1.514 0-2.752-1.238-2.752-2.75 0-1.518 1.238-2.754 2.752-2.754z"/>
					<path d="m1245.2 822.73h15.135c1.514 0 2.748 1.236 2.748 2.754 0 1.512-1.234 2.75-2.748 2.75h-15.135c-1.514 0-2.756-1.238-2.756-2.75 0-1.518 1.242-2.754 2.756-2.754z"/>
					<path d="m1233.2 833.58h4.99c1.512 0 2.75 1.238 2.75 2.754 0 1.514-1.238 2.752-2.75 2.752h-4.99c-1.514 0-2.75-1.238-2.75-2.752 0-1.516 1.236-2.754 2.75-2.754z"/>
					<path d="m1246.9 833.58h43.92c1.512 0 2.75 1.238 2.75 2.754 0 1.514-1.238 2.752-2.75 2.752h-43.92c-1.514 0-2.75-1.238-2.75-2.752 0-1.516 1.236-2.754 2.75-2.754z"/>
					<path d="m1269.9 822.73h2.77c1.512 0 2.75 1.236 2.75 2.754 0 1.512-1.238 2.75-2.75 2.75h-2.77c-1.514 0-2.752-1.238-2.752-2.75 0-1.518 1.238-2.754 2.752-2.754z"/>
					<path d="m1284.1 822.73h2.77c1.514 0 2.75 1.236 2.75 2.754 0 1.512-1.236 2.75-2.75 2.75h-2.77c-1.514 0-2.75-1.238-2.75-2.75 0-1.518 1.236-2.754 2.75-2.754z"/>
					<path d="m1267.1 768.45h4.986c1.518 0 2.75 1.238 2.75 2.752v4e-3c0 1.512-1.232 2.75-2.75 2.75h-4.986c-1.514 0-2.756-1.238-2.756-2.75v-4e-3c1e-3 -1.513 1.243-2.752 2.756-2.752z"/>
					<path d="m1285.8 768.45h4.984c1.514 0 2.752 1.238 2.752 2.752v4e-3c0 1.512-1.238 2.75-2.752 2.75h-4.984c-1.518 0-2.754-1.238-2.754-2.75v-4e-3c0-1.513 1.237-2.752 2.754-2.752z"/>
				</g>
			
			
				<path d="m1296.6 620.47c14.902 0 27.1 12.191 27.1 27.098v28.678c0 14.906-12.197 27.1-27.1 27.1-14.904 0-27.098-12.193-27.098-27.1v-28.678c1e-3 -14.907 12.194-27.098 27.098-27.098z" fill="#fff"/>
				<path d="m1296.6 634.55h2e-3c2.463 0 4.473 2.011 4.473 4.472v5.657c0 2.458-2.01 4.473-4.473 4.473h-2e-3c-2.459 0-4.475-2.015-4.475-4.473v-5.657c1e-3 -2.461 2.017-4.472 4.475-4.472z" fill="#083A47"/>
				<path d="m1319.9 643.36v28.678c0 14.906-12.197 27.098-27.1 27.098-6.918 0-13.248-2.627-18.051-6.93 4.941 6.742 12.916 11.141 21.865 11.141 14.902 0 27.1-12.193 27.1-27.1v-28.678c0-7.986-3.502-15.197-9.047-20.168 3.287 4.487 5.233 10.006 5.233 15.959z" fill="#C6C6C9"/>
			
			
				<path d="m1055 901.46v8.57c0.602 0.074 1.217 0.115 1.842 0.115 8.135 0 14.734-6.598 14.734-14.736 0-8.137-6.6-14.732-14.734-14.732-0.625 0-1.24 0.039-1.842 0.113v20.67zm0 17.82v17.176c0 6.943-5.68 12.629-12.629 12.629h-55.779c-6.943 0-12.629-5.686-12.629-12.629v-77.617c0-3.475 2.84-6.314 6.314-6.314h68.41c3.473 0 6.313 2.84 6.313 6.314v12.701c0.609-0.045 1.223-0.068 1.842-0.068 13.221 0 23.943 10.717 23.943 23.938 0 13.225-10.723 23.941-23.943 23.941-0.619 0-1.233-0.026-1.842-0.071z" fill="#fff"/>
				<path d="m1025.8 852.52c0-2.002 0.82-3.832 2.145-5.154 1.332-1.328 3.158-2.15 5.164-2.15s3.834 0.822 5.154 2.146c1.324 1.318 2.146 3.148 2.146 5.158v16.949c0 0.826-0.666 1.492-1.488 1.492-0.826 0-1.496-0.666-1.496-1.492v-16.949c0-1.184-0.486-2.27-1.266-3.051-0.785-0.781-1.867-1.27-3.051-1.27-1.193 0-2.277 0.484-3.055 1.262-0.785 0.785-1.271 1.871-1.271 3.059h-2.982z" fill="#083A47"/>
				<path d="m1046.8 898.04v29.996c0 6.943-5.686 12.629-12.627 12.629h-55.781c-1.377 0-2.709-0.227-3.953-0.641 1.549 5.221 6.404 9.061 12.109 9.061h55.779c6.949 0 12.629-5.686 12.629-12.629v-17.176l1.842 0.07c13.221 0 23.943-10.717 23.943-23.941 0-13.221-10.723-23.938-23.943-23.938l-1.842 0.068v-12.701c0-3.475-2.84-6.314-6.313-6.314h-1.844v45.516h1e-3zm8.156 8.422v-25.672c0.602-0.074 1.217-0.113 1.842-0.113 8.135 0 14.734 6.596 14.734 14.732 0 8.139-6.6 14.736-14.734 14.736-0.625 0-1.24-0.041-1.842-0.115v-3.568z" fill="#E0DEDE"/>
				<path d="m1033.6 868.79h10.523c0.904 0 1.645 0.738 1.645 1.643v14.246c0 0.904-0.74 1.645-1.645 1.645h-10.523c-0.9 0-1.645-0.74-1.645-1.645v-14.246c0-0.905 0.745-1.643 1.645-1.643z" fill="#F79222"/>
			
			<path d="m1040.9 831.6h-24.928c-1.738 0-3.158-1.418-3.158-3.154 0-1.738 1.42-3.16 3.158-3.16h19.402c1.99 0 3.619-1.629 3.619-3.613v-4e-3c0-1.99-1.629-3.617-3.619-3.617h-11.514c-1.738 0-3.158-1.42-3.158-3.154 0-1.738 1.42-3.16 3.158-3.16h6.646c1.99 0 3.619-1.629 3.619-3.619s-1.629-3.617-3.619-3.617h-13.039c-1.916 0-3.479-1.563-3.479-3.473 0-1.916 1.563-3.482 3.479-3.482h20.809c2.418 0 4.398-1.977 4.398-4.398 0-2.418-1.98-4.398-4.398-4.398h-62.262c-2.422 0-4.4 1.98-4.4 4.398 0 2.422 1.979 4.398 4.4 4.398h22.619c1.912 0 3.479 1.566 3.479 3.482 0 1.91-1.566 3.473-3.479 3.473h-26.672c-1.988 0-3.613 1.627-3.613 3.617s1.625 3.619 3.613 3.619h34.799c1.738 0 3.156 1.422 3.156 3.16 0 1.734-1.418 3.154-3.156 3.154h-11.506c-1.99 0-3.617 1.627-3.617 3.617v4e-3c0 1.984 1.627 3.613 3.617 3.613h3.617c1.734 0 3.158 1.422 3.158 3.16 0 1.736-1.424 3.154-3.158 3.154h-10.195c-1.99 0-3.617 1.627-3.617 3.617 0 1.994 1.627 3.621 3.617 3.621h52.225c1.99 0 3.617-1.627 3.617-3.621-1e-3 -1.99-1.628-3.617-3.618-3.617zm-80.103-42.852h-0.938c-2.42 0-4.398 1.98-4.398 4.398 0 2.422 1.979 4.398 4.398 4.398h0.938c2.418 0 4.398-1.977 4.398-4.398 0-2.417-1.98-4.398-4.398-4.398zm91.82 0h-0.938c-2.422 0-4.398 1.98-4.398 4.398 0 2.422 1.977 4.398 4.398 4.398h0.938c2.416 0 4.398-1.977 4.398-4.398 0-2.417-1.982-4.398-4.398-4.398z" fill="#116F63"/>
			
				<path d="m426.47 763.72h64.199c6.365 0 11.574 5.209 11.574 11.576v152.6c0 6.367-5.209 11.576-11.574 11.576h-64.199c-6.365 0-11.574-5.209-11.574-11.576v-152.6c0-6.367 5.209-11.576 11.574-11.576z" fill="#083A47"/>
				<path d="m426.08 790.56h64.984c2.604 0 4.736 2.129 4.736 4.736v106.29c0 2.605-2.132 4.736-4.736 4.736h-64.984c-2.604 0-4.735-2.131-4.735-4.736v-106.29c0-2.607 2.131-4.736 4.735-4.736z" fill="#33A4AC"/>
				<path d="m494.46 792c0.826 0.854 1.336 2.014 1.336 3.289v106.29c0 2.605-2.132 4.736-4.736 4.736h-64.984c-0.912 0-1.768-0.264-2.493-0.715l70.877-113.6z" fill="#27939C"/>
				<path d="m458.57 933.15c5.503 0 9.997-4.49 9.997-9.998 0-5.506-4.494-9.994-9.997-9.994-5.507 0-9.998 4.488-9.998 9.994 0 5.508 4.491 9.998 9.998 9.998z" fill="#7BCED4"/>
				<path d="m458.57 928.68c3.041 0 5.524-2.479 5.524-5.525 0-3.043-2.483-5.521-5.524-5.521-3.045 0-5.525 2.479-5.525 5.521 0 3.046 2.48 5.525 5.525 5.525z" fill="#fff"/>
				<g fill="#fff">
					<path d="m443.34 776.22h18.945c1.266 0 2.3 1.035 2.3 2.301 0 1.268-1.034 2.303-2.3 2.303h-18.945c-1.267 0-2.303-1.035-2.303-2.303 0-1.266 1.036-2.301 2.303-2.301z"/>
					<path d="m470.9 776.22h2.894c1.267 0 2.303 1.035 2.303 2.301 0 1.268-1.036 2.303-2.303 2.303h-2.894c-1.267 0-2.303-1.035-2.303-2.303 1e-3 -1.266 1.037-2.301 2.303-2.301z"/>
				</g>
				<path d="m498.43 884.58v38.588c0 6.365-5.209 11.572-11.574 11.572h-64.2c-2.529 0-4.877-0.822-6.788-2.217 1.792 4.084 5.878 6.953 10.604 6.953h64.199c6.365 0 11.574-5.209 11.574-11.576v-152.6c0-3.836-1.891-7.252-4.785-9.359 0.625 1.418 0.971 2.984 0.971 4.625v114.01z" fill="#042632"/>
			
			
				<path d="m441.27 607.58h40.942c1.836 0 3.339 1.505 3.339 3.343v4.024h73.668c3.33 0 6.051 2.725 6.051 6.051v74.193c0 3.328-2.721 6.055-6.051 6.055h-115.24c-3.328 0-6.052-2.727-6.052-6.055v-84.268c1e-3 -1.838 1.504-3.343 3.339-3.343z" fill="#F79222"/>
				<path d="m457.4 624.68h88.402c1.737 0 3.157 1.418 3.157 3.158v23.414c0 1.735-1.42 3.158-3.157 3.158h-88.402c-1.734 0-3.154-1.423-3.154-3.158v-23.414c0-1.74 1.42-3.158 3.154-3.158z" fill="#fff"/>
				<path d="m443.98 637.83h115.24c3.33 0 6.051 2.726 6.051 6.056v74.192c0 3.326-2.721 6.051-6.051 6.051h-115.24c-3.328 0-6.052-2.725-6.052-6.051v-74.192c1e-3 -3.33 2.724-6.056 6.052-6.056z" fill="#FFC421"/>
				<path d="m494.15 652.7h3.521c1.918 0 3.483 1.566 3.483 3.486 0 1.916-1.565 3.486-3.483 3.486h-3.521c-1.917 0-3.485-1.57-3.485-3.486 0-1.919 1.568-3.486 3.485-3.486z" fill="#33A4AC"/>
				<path d="m507.81 652.7h28.566c1.918 0 3.485 1.566 3.485 3.486 0 1.916-1.567 3.486-3.485 3.486h-28.566c-1.92 0-3.486-1.57-3.486-3.486-1e-3 -1.919 1.566-3.486 3.486-3.486z" fill="#fff"/>
				<path d="m543.07 666.45h3.521c1.916 0 3.484 1.565 3.484 3.484 0 1.916-1.568 3.486-3.484 3.486h-3.521c-1.918 0-3.486-1.57-3.486-3.486 0-1.918 1.568-3.484 3.486-3.484z" fill="#F79222"/>
				<path d="m511.74 666.45h19.635c1.918 0 3.483 1.565 3.483 3.484 0 1.916-1.565 3.486-3.483 3.486h-19.635c-1.921 0-3.486-1.57-3.486-3.486 0-1.918 1.565-3.484 3.486-3.484z" fill="#fff"/>
				<path d="m502.01 680.2h3.52c1.918 0 3.485 1.566 3.485 3.485 0 1.915-1.567 3.481-3.485 3.481h-3.52c-1.917 0-3.485-1.566-3.485-3.481-1e-3 -1.918 1.568-3.485 3.485-3.485z" fill="#F16464"/>
				<path d="m515.68 680.2h24.517c1.918 0 3.486 1.566 3.486 3.485 0 1.915-1.568 3.481-3.486 3.481h-24.517c-1.92 0-3.486-1.566-3.486-3.481-1e-3 -1.918 1.566-3.485 3.486-3.485z" fill="#fff"/>
			
			
				<path d="m438.85 438.15h119.71c3.327 0 6.051 2.722 6.051 6.051v78.14c0 3.33-2.724 6.052-6.051 6.052h-119.71c-3.327 0-6.051-2.722-6.051-6.052v-78.14c1e-3 -3.33 2.724-6.051 6.051-6.051z" fill="#C9E6E8"/>
				<path d="m563.03 526.41c-1.107 1.212-2.7 1.978-4.464 1.978h-119.71c-1.763 0-3.356-0.766-4.466-1.978l64.322-57.235 64.319 57.235z" fill="#E0F2F2"/>
				<path d="m438.85 438.15h119.71c1.969 0 3.726 0.954 4.834 2.426l-64.688 57.56-64.688-57.56c1.106-1.472 2.863-2.426 4.831-2.426z" fill="#fff"/>
			
			
				<path d="m210.75 552.86c-7.553 0-13.678-6.126-13.678-13.682 0-6.503 4.531-11.941 10.609-13.335-0.316-1.821-0.48-3.696-0.48-5.607 0-18.018 14.605-32.624 32.623-32.624 16.411 0 29.991 12.119 32.281 27.897 1.732-0.519 3.57-0.799 5.474-0.799 10.534 0 19.074 8.538 19.074 19.075 0 0.847-0.058 1.681-0.164 2.503 4.468 0.123 8.053 3.782 8.053 8.284 0 4.574-3.71 8.287-8.288 8.287h-85.504z" fill="#fff"/>
				<path d="m300.6 539.57c0 4.575-3.711 8.287-8.287 8.287h-85.503c-3.2 0-6.142-1.102-8.472-2.938 2.17 4.686 6.916 7.938 12.418 7.938h85.504c4.578 0 8.288-3.713 8.288-8.287 0-3.116-1.719-5.826-4.255-7.244 0.199 0.714 0.307 1.467 0.307 2.244z" fill="#ADDBDD"/>
			
			
				<path d="m203.65 577.72h92.611c3.184 0 5.786 2.605 5.786 5.788v128.26c0 7.885-6.452 14.34-14.339 14.34h-75.506c-7.889 0-14.339-6.455-14.339-14.34v-128.26c1e-3 -3.183 2.604-5.788 5.787-5.788z" fill="#fff"/>
				<path d="m327.05 705.45h-100.5v6.314c0 7.885-6.452 14.34-14.339 14.34h100.5c7.885 0 14.339-6.455 14.339-14.34v-6.314z" fill="#A0D6D9"/>
				<g fill="#083A47">
					<path d="m214.52 608.22h3.905c1.57 0 2.853 1.281 2.853 2.852 0 1.57-1.282 2.857-2.853 2.857h-3.905c-1.57 0-2.854-1.287-2.854-2.857 0-1.571 1.283-2.852 2.854-2.852z"/>
					<path d="m227.04 608.22h13.201c1.571 0 2.855 1.281 2.855 2.852 0 1.57-1.284 2.857-2.855 2.857h-13.201c-1.568 0-2.854-1.287-2.854-2.857 1e-3 -1.571 1.286-2.852 2.854-2.852z"/>
					<path d="m218.12 619.48h3.9c1.572 0 2.857 1.282 2.857 2.853s-1.285 2.857-2.857 2.857h-3.9c-1.573 0-2.857-1.286-2.857-2.857 0-1.57 1.284-2.853 2.857-2.853z"/>
					<path d="m230.64 619.48h13.2c1.572 0 2.857 1.282 2.857 2.853s-1.285 2.857-2.857 2.857h-13.2c-1.57 0-2.853-1.286-2.853-2.857 0-1.57 1.282-2.853 2.853-2.853z"/>
					<path d="m221.73 630.74h3.905c1.57 0 2.853 1.286 2.853 2.856s-1.282 2.854-2.853 2.854h-3.905c-1.57 0-2.854-1.283-2.854-2.854-1e-3 -1.57 1.283-2.856 2.854-2.856z"/>
					<path d="m234.24 630.74h26.855c1.569 0 2.854 1.286 2.854 2.856s-1.285 2.854-2.854 2.854h-26.854c-1.57 0-2.854-1.283-2.854-2.854-1e-3 -1.57 1.283-2.856 2.853-2.856z"/>
					<path d="m225.33 642h3.903c1.57 0 2.854 1.287 2.854 2.857s-1.284 2.854-2.854 2.854h-3.903c-1.57 0-2.855-1.283-2.855-2.854 0-1.57 1.285-2.857 2.855-2.857z"/>
					<path d="m237.85 642h18.669c1.57 0 2.855 1.287 2.855 2.857s-1.285 2.854-2.855 2.854h-18.669c-1.57 0-2.855-1.283-2.855-2.854-1e-3 -1.57 1.284-2.857 2.855-2.857z"/>
					<path d="m228.93 653.26h3.905c1.57 0 2.855 1.287 2.855 2.857s-1.285 2.853-2.855 2.853h-3.905c-1.57 0-2.853-1.282-2.853-2.853 0-1.57 1.282-2.857 2.853-2.857z"/>
					<path d="m241.45 653.26h23.143c1.57 0 2.856 1.287 2.856 2.857s-1.286 2.853-2.856 2.853h-23.143c-1.569 0-2.854-1.282-2.854-2.853 0-1.57 1.285-2.857 2.854-2.857z"/>
					<path d="m227.23 664.52h3.906c1.569 0 2.853 1.287 2.853 2.857s-1.283 2.853-2.853 2.853h-3.906c-1.569 0-2.854-1.282-2.854-2.853 0-1.57 1.285-2.857 2.854-2.857z"/>
					<path d="m239.75 664.52h13.201c1.571 0 2.855 1.287 2.855 2.857s-1.284 2.853-2.855 2.853h-13.201c-1.569 0-2.854-1.282-2.854-2.853 0-1.57 1.285-2.857 2.854-2.857z"/>
					<path d="m218.12 675.78h3.904c1.571 0 2.854 1.287 2.854 2.854v4e-3c0 1.57-1.282 2.852-2.854 2.852h-3.904c-1.571 0-2.855-1.281-2.855-2.852v-4e-3c0-1.567 1.284-2.854 2.855-2.854z"/>
					<path d="m234.31 675.78h13.198c1.572 0 2.857 1.287 2.857 2.854v4e-3c0 1.57-1.285 2.852-2.857 2.852h-13.198c-1.569 0-2.854-1.281-2.854-2.852v-4e-3c-1e-3 -1.567 1.284-2.854 2.854-2.854z"/>
					<path d="m223.34 687.04h3.905c1.571 0 2.855 1.287 2.855 2.854v4e-3c0 1.57-1.284 2.854-2.855 2.854h-3.905c-1.57 0-2.853-1.283-2.853-2.854v-4e-3c0-1.567 1.282-2.854 2.853-2.854z"/>
					<path d="m235.86 687.04h39.579c1.567 0 2.853 1.287 2.853 2.854v4e-3c0 1.57-1.285 2.854-2.853 2.854h-39.579c-1.57 0-2.854-1.283-2.854-2.854v-4e-3c1e-3 -1.567 1.284-2.854 2.854-2.854z"/>
					<path d="m214.87 698.3h3.903c1.57 0 2.855 1.287 2.855 2.854v4e-3c0 1.57-1.285 2.854-2.855 2.854h-3.903c-1.569 0-2.854-1.283-2.854-2.854v-4e-3c0-1.567 1.285-2.854 2.854-2.854z"/>
					<path d="m286.75 687.04h3.905c1.57 0 2.855 1.287 2.855 2.854v4e-3c0 1.57-1.285 2.854-2.855 2.854h-3.905c-1.57 0-2.854-1.283-2.854-2.854v-4e-3c1e-3 -1.567 1.284-2.854 2.854-2.854z"/>
					<path d="m257 675.78h1.872c1.568 0 2.854 1.287 2.854 2.854v4e-3c0 1.57-1.285 2.852-2.854 2.852h-1.872c-1.57 0-2.855-1.281-2.855-2.852v-4e-3c0-1.567 1.285-2.854 2.855-2.854z"/>
					<path d="m270.02 675.78h1.872c1.571 0 2.854 1.287 2.854 2.854v4e-3c0 1.57-1.282 2.852-2.854 2.852h-1.872c-1.57 0-2.853-1.281-2.853-2.852v-4e-3c0-1.567 1.282-2.854 2.853-2.854z"/>
					<path d="m254.4 619.48h3.904c1.57 0 2.854 1.282 2.854 2.853s-1.284 2.857-2.854 2.857h-3.904c-1.57 0-2.854-1.286-2.854-2.857 0-1.57 1.284-2.853 2.854-2.853z"/>
					<path d="m271.52 619.48h3.903c1.57 0 2.854 1.282 2.854 2.853s-1.284 2.857-2.854 2.857h-3.903c-1.57 0-2.855-1.286-2.855-2.857-1e-3 -1.57 1.284-2.853 2.855-2.853z"/>
				</g>
				<path d="m249.96 601.8c3.332 0 6.051-2.717 6.051-6.051s-2.719-6.052-6.051-6.052-6.052 2.718-6.052 6.052 2.72 6.051 6.052 6.051z" fill="#F16464"/>
			
			
				<path d="m440.2 372.12h36.472c4.069 0 7.394 3.33 7.394 7.396v36.472c0 4.069-3.324 7.396-7.394 7.396h-36.472c-4.067 0-7.396-3.326-7.396-7.396v-36.472c1e-3 -4.066 3.329-7.396 7.396-7.396z" fill="#F16464"/>
				<path d="m464.98 383.02c2.257-2.257 5.92-2.257 8.177 0 2.259 2.261 2.259 5.924 0 8.181l-6.549 6.548 6.549 6.554c2.259 2.257 2.259 5.919 0 8.176-2.257 2.257-5.92 2.257-8.177 0l-6.551-6.553-6.55 6.553c-2.259 2.257-5.921 2.257-8.18 0-2.256-2.257-2.256-5.919 0-8.176l6.553-6.554-6.553-6.548c-2.256-2.257-2.256-5.92 0-8.181 2.259-2.257 5.921-2.257 8.18 0l6.55 6.553 6.551-6.553z" fill="#fff"/>
			
			<path d="m218 759.97c3.674 0.801 7.111 2.252 10.182 4.217l4.685-4.688c0.67-0.668 1.76-0.668 2.43 0l7.12 7.121c0.668 0.67 0.668 1.76 0 2.43l-4.687 4.688c1.969 3.066 3.418 6.502 4.222 10.178h6.621c0.945 0 1.718 0.773 1.718 1.719v10.066c0 0.945-0.772 1.719-1.718 1.719h-6.621c-0.804 3.674-2.255 7.111-4.222 10.178l4.687 4.688c0.668 0.67 0.668 1.76 0 2.428l-7.12 7.121c-0.67 0.67-1.762 0.67-2.43 0l-4.685-4.682c-3.07 1.965-6.508 3.412-10.182 4.217v6.623c0 0.945-0.771 1.719-1.717 1.719h-10.067c-0.948 0-1.719-0.773-1.719-1.719v-6.623c-3.677-0.805-7.107-2.256-10.179-4.221l-4.687 4.686c-0.667 0.67-1.761 0.666-2.429 0l-7.12-7.121c-0.668-0.668-0.668-1.758 0-2.428l4.685-4.688c-1.968-3.066-3.416-6.504-4.22-10.178h-6.623c-0.945 0-1.716-0.773-1.716-1.719v-10.066c0-0.945 0.771-1.719 1.716-1.719h6.623c0.804-3.676 2.25-7.111 4.22-10.178l-4.685-4.688c-0.668-0.67-0.668-1.76 0-2.43l7.12-7.121c0.668-0.668 1.76-0.668 2.429 0l4.687 4.688c3.071-1.965 6.502-3.412 10.179-4.217v-6.627c0-0.945 0.771-1.715 1.719-1.715h10.067c0.945 0 1.717 0.77 1.717 1.715v6.627zm-6.751 13.857c-9.301 0-16.844 7.539-16.844 16.842 0 9.299 7.543 16.842 16.844 16.842 9.303 0 16.843-7.543 16.843-16.842 0-9.303-7.54-16.842-16.843-16.842z" fill="#116F63"/>
			
				<path d="m157.36 577.72h22.733c2.536 0 4.61 2.075 4.61 4.612v22.732c0 2.533-2.074 4.607-4.61 4.607h-22.733c-2.534 0-4.608-2.074-4.608-4.607v-22.732c0-2.537 2.074-4.612 4.608-4.612z" fill="#F16464"/>
				<path d="m172.81 587.83c1.408-1.406 3.689-1.406 5.098 0 1.405 1.41 1.405 3.691 0 5.098l-6.633 6.635c-1.406 1.406-3.689 1.406-5.096 0l-6.633-6.635c-1.408-1.406-1.408-3.688 0-5.098 1.406-1.406 3.689-1.406 5.096 0l4.086 4.087 4.082-4.087z" fill="#fff"/>
			
			
				<path d="m157.36 631.66h22.733c2.536 0 4.61 2.072 4.61 4.607v22.733c0 2.537-2.074 4.609-4.61 4.609h-22.733c-2.534 0-4.608-2.072-4.608-4.609v-22.732c0-2.536 2.074-4.608 4.608-4.608z" fill="#F16464"/>
				<path d="m172.81 641.77c1.408-1.409 3.689-1.409 5.098 0 1.405 1.405 1.405 3.688 0 5.097l-6.633 6.631c-1.406 1.406-3.689 1.406-5.096 0l-6.633-6.634c-1.408-1.406-1.408-3.688 0-5.099 1.406-1.404 3.689-1.404 5.096 0l4.086 4.087 4.082-4.082z" fill="#fff"/>
			
			
				<path d="m157.36 685.6h22.733c2.536 0 4.61 2.072 4.61 4.609v22.732c0 2.537-2.074 4.611-4.61 4.611h-22.733c-2.534 0-4.608-2.074-4.608-4.611v-22.732c0-2.537 2.074-4.609 4.608-4.609z" fill="#F16464"/>
				<path d="m172.81 695.71c1.408-1.406 3.689-1.406 5.098 0 1.405 1.406 1.405 3.688 0 5.098l-6.633 6.631c-1.406 1.406-3.689 1.406-5.096 0l-6.633-6.631c-1.408-1.41-1.408-3.691 0-5.098 1.406-1.41 3.689-1.41 5.096 0l4.086 4.082 4.082-4.082z" fill="#fff"/>
			
			<g fill="#116F63">
				<path d="m497.15 374.75h42.097c1.955 0 3.552 1.599 3.552 3.552 0 1.952-1.597 3.551-3.552 3.551h-42.097c-1.953 0-3.55-1.599-3.55-3.551 1e-3 -1.953 1.597-3.552 3.55-3.552z"/>
				<path d="m552.14 374.75h5.001c1.955 0 3.552 1.599 3.552 3.552 0 1.952-1.597 3.551-3.552 3.551h-5.001c-1.953 0-3.552-1.599-3.552-3.551 0-1.953 1.599-3.552 3.552-3.552z"/>
				<path d="m497.15 391.46h21.935c1.953 0 3.553 1.599 3.553 3.552s-1.6 3.552-3.553 3.552h-21.935c-1.953 0-3.55-1.599-3.55-3.552 1e-3 -1.953 1.597-3.552 3.55-3.552z"/>
				<path d="m529.61 391.46h0.041c1.952 0 3.552 1.599 3.552 3.552s-1.6 3.552-3.552 3.552h-0.041c-1.953 0-3.55-1.599-3.55-3.552 1e-3 -1.953 1.597-3.552 3.55-3.552z"/>
				<path d="m557.14 408.16h-42.098c-1.952 0-3.549 1.6-3.549 3.552 0 1.953 1.597 3.552 3.549 3.552h42.098c1.955 0 3.552-1.599 3.552-3.552-1e-3 -1.952-1.597-3.552-3.552-3.552z"/>
				<path d="m502.15 408.16h-5.001c-1.953 0-3.55 1.6-3.55 3.552 0 1.953 1.597 3.552 3.55 3.552h5.001c1.954 0 3.552-1.599 3.552-3.552 0-1.952-1.598-3.552-3.552-3.552z"/>
				<path d="m544.77 391.46h12.367c1.955 0 3.552 1.599 3.552 3.552s-1.597 3.552-3.552 3.552h-12.367c-1.952 0-3.55-1.599-3.55-3.552 1e-3 -1.953 1.598-3.552 3.55-3.552z"/>
			</g>
			<g fill="#116F63">
				<path d="m325.36 599.74c3.074 0 5.861 1.25 7.876 3.264 2.017 2.015 3.262 4.802 3.262 7.876 0 3.075-1.245 5.862-3.262 7.877-2.015 2.014-4.802 3.264-7.876 3.264-3.077 0-5.862-1.25-7.877-3.264-2.016-2.015-3.262-4.802-3.262-7.877 0-3.074 1.246-5.861 3.262-7.876 2.015-2.014 4.8-3.264 7.877-3.264zm3.657 7.482c-0.936-0.934-2.229-1.512-3.656-1.512-1.429 0-2.722 0.578-3.657 1.512-0.937 0.938-1.517 2.229-1.517 3.658 0 1.428 0.58 2.722 1.517 3.659 0.936 0.933 2.229 1.513 3.657 1.513 1.427 0 2.721-0.58 3.656-1.513 0.936-0.938 1.518-2.231 1.518-3.659-1e-3 -1.43-0.583-2.721-1.518-3.658z"/>
				<path d="m414.55 673.93c3.075 0 5.859 1.25 7.876 3.264 2.015 2.016 3.263 4.803 3.263 7.877s-1.248 5.861-3.263 7.877c-2.017 2.014-4.801 3.264-7.876 3.264-3.077 0-5.862-1.25-7.877-3.264-2.017-2.016-3.264-4.803-3.264-7.877s1.247-5.861 3.264-7.877c2.015-2.014 4.8-3.264 7.877-3.264zm3.656 7.482c-0.936-0.934-2.23-1.514-3.656-1.514-1.429 0-2.724 0.58-3.659 1.514-0.936 0.938-1.515 2.228-1.515 3.658 0 1.428 0.579 2.721 1.515 3.658 0.936 0.934 2.23 1.514 3.659 1.514 1.426 0 2.721-0.58 3.656-1.514 0.936-0.938 1.515-2.23 1.515-3.658 0-1.43-0.579-2.72-1.515-3.658z"/>
				<path d="m333.52 613.86c-1.646 0-2.982-1.335-2.982-2.984 0-1.648 1.336-2.984 2.982-2.984h27.892c3.862 0 7.373 1.579 9.913 4.119l0.175 0.189c2.438 2.528 3.944 5.961 3.944 9.727v52.092c0 2.225 0.906 4.239 2.362 5.694l0.013 0.013c1.455 1.455 3.471 2.359 5.69 2.359h22.89c1.646 0 2.982 1.336 2.982 2.984s-1.336 2.984-2.982 2.984h-22.89c-3.842 0-7.344-1.578-9.891-4.111l-0.02-0.023c-2.541-2.546-4.119-6.053-4.119-9.9v-52.092c0-2.146-0.852-4.107-2.231-5.563l-0.144-0.131c-1.461-1.464-3.479-2.373-5.693-2.373h-27.891z"/>
			</g>
			<g fill="#116F63">
				<path d="m498.71 535.28c3.075 0 5.86 1.246 7.877 3.26 2.014 2.019 3.262 4.802 3.262 7.877 0 3.074-1.248 5.862-3.262 7.876-2.017 2.019-4.802 3.264-7.877 3.264-3.077 0-5.862-1.245-7.879-3.264-2.014-2.014-3.262-4.802-3.262-7.876 0-3.075 1.248-5.858 3.262-7.877 2.017-2.014 4.802-3.26 7.879-3.26zm3.657 7.482c-0.936-0.937-2.23-1.517-3.657-1.517-1.429 0-2.724 0.58-3.659 1.517-0.935 0.934-1.514 2.229-1.514 3.655s0.579 2.722 1.514 3.658c0.936 0.938 2.23 1.518 3.659 1.518 1.427 0 2.722-0.58 3.657-1.518 0.935-0.937 1.515-2.232 1.515-3.658 0-1.427-0.58-2.722-1.515-3.655z"/>
				<path d="m498.71 580.16c3.075 0 5.86 1.25 7.877 3.264 2.014 2.015 3.262 4.802 3.262 7.876 0 3.076-1.248 5.863-3.262 7.877-2.017 2.014-4.802 3.264-7.877 3.264-3.077 0-5.862-1.25-7.879-3.264-2.014-2.014-3.262-4.801-3.262-7.877 0-3.074 1.248-5.861 3.262-7.876 2.017-2.014 4.802-3.264 7.879-3.264zm3.657 7.482c-0.936-0.933-2.23-1.513-3.657-1.513-1.429 0-2.724 0.58-3.659 1.513-0.935 0.938-1.514 2.232-1.514 3.658 0 1.428 0.579 2.722 1.514 3.659 0.936 0.934 2.23 1.514 3.659 1.514 1.427 0 2.722-0.58 3.657-1.514 0.935-0.938 1.515-2.231 1.515-3.659 0-1.426-0.58-2.721-1.515-3.658z"/>
				<path d="m495.73 554.58c0-1.644 1.336-2.979 2.984-2.979 1.646 0 2.982 1.336 2.982 2.979v28.563c0 1.648-1.336 2.984-2.982 2.984-1.648 0-2.984-1.336-2.984-2.984v-28.563z"/>
			</g>
			<g fill="#116F63">
				<path d="m1184.1 663.81c-1.43 0-2.721 0.58-3.658 1.518-0.934 0.932-1.514 2.229-1.514 3.654s0.58 2.721 1.514 3.658c0.938 0.934 2.229 1.518 3.658 1.518 1.428 0 2.723-0.584 3.658-1.518 0.938-0.938 1.514-2.232 1.514-3.658s-0.576-2.723-1.514-3.654c-0.936-0.938-2.231-1.518-3.658-1.518zm-7.875-2.706c2.014-2.014 4.801-3.26 7.875-3.26 3.076 0 5.863 1.246 7.877 3.26s3.264 4.802 3.264 7.877c0 3.074-1.25 5.862-3.264 7.876-2.014 2.019-4.801 3.265-7.877 3.265-3.074 0-5.861-1.246-7.875-3.265-2.016-2.014-3.264-4.802-3.264-7.876 0-3.075 1.248-5.863 3.264-7.877z"/>
				<path d="m933.63 756.94c-1.426 0-2.721 0.58-3.658 1.518-0.934 0.934-1.512 2.229-1.512 3.654s0.578 2.723 1.512 3.66c0.938 0.932 2.232 1.512 3.658 1.512 1.432 0 2.723-0.58 3.66-1.512 0.936-0.938 1.512-2.234 1.512-3.66s-0.576-2.721-1.512-3.654c-0.937-0.938-2.228-1.518-3.66-1.518zm-7.875-2.703c2.014-2.016 4.801-3.26 7.875-3.26 3.076 0 5.863 1.244 7.877 3.26 2.014 2.014 3.264 4.801 3.264 7.875 0 3.076-1.25 5.863-3.264 7.877-2.014 2.018-4.801 3.264-7.877 3.264-3.074 0-5.861-1.246-7.875-3.264-2.014-2.014-3.264-4.801-3.264-7.877 0-3.074 1.25-5.861 3.264-7.875z"/>
				<path d="m1175.9 666c1.643 0 2.982 1.336 2.982 2.98 0 1.648-1.34 2.984-2.982 2.984h-27.893c-2.217 0-4.23 0.908-5.693 2.372-1.465 1.463-2.373 3.481-2.373 5.692v71.037c0 3.852-1.582 7.357-4.123 9.902l-8e-3 0.012c-2.541 2.541-6.051 4.119-9.898 4.119h-184.17c-1.645 0-2.984-1.334-2.984-2.984 0-1.645 1.34-2.98 2.984-2.98h184.17c2.211 0 4.232-0.908 5.697-2.367 1.455-1.463 2.367-3.486 2.367-5.701v-71.037c0-3.859 1.578-7.369 4.119-9.91s6.051-4.119 9.912-4.119h27.893z"/>
			</g>
			<g fill="#116F63">
				<path d="m996.9 488.73c3.076 0 5.863 1.249 7.879 3.264 2.014 2.014 3.264 4.802 3.264 7.876 0 3.075-1.25 5.862-3.264 7.877-2.016 2.014-4.803 3.264-7.879 3.264-3.074 0-5.861-1.25-7.875-3.264-2.016-2.015-3.264-4.802-3.264-7.877 0-3.074 1.248-5.862 3.264-7.876 2.014-2.015 4.801-3.264 7.875-3.264zm3.661 7.482c-0.938-0.934-2.232-1.513-3.66-1.513-1.43 0-2.719 0.579-3.658 1.513-0.938 0.937-1.512 2.232-1.512 3.658 0 1.427 0.574 2.722 1.512 3.658 0.939 0.934 2.229 1.514 3.658 1.514 1.428 0 2.723-0.58 3.66-1.514 0.934-0.937 1.514-2.231 1.514-3.658-1e-3 -1.426-0.581-2.722-1.514-3.658z"/>
				<path d="m996.9 533.6c3.076 0 5.863 1.25 7.879 3.265 2.014 2.015 3.264 4.802 3.264 7.876 0 3.075-1.25 5.862-3.264 7.877-2.016 2.014-4.803 3.26-7.879 3.26-3.074 0-5.861-1.246-7.875-3.26-2.016-2.015-3.264-4.802-3.264-7.877 0-3.074 1.248-5.861 3.264-7.876 2.014-2.015 4.801-3.265 7.875-3.265zm3.661 7.482c-0.938-0.934-2.232-1.513-3.66-1.513-1.43 0-2.719 0.579-3.658 1.513-0.938 0.938-1.512 2.229-1.512 3.658 0 1.427 0.574 2.722 1.512 3.659 0.939 0.933 2.229 1.513 3.658 1.513 1.428 0 2.723-0.58 3.66-1.513 0.934-0.938 1.514-2.232 1.514-3.659-1e-3 -1.43-0.581-2.721-1.514-3.658z"/>
				<path d="m993.91 508.03c0-1.648 1.336-2.984 2.982-2.984s2.986 1.336 2.986 2.984v28.562c0 1.645-1.34 2.985-2.986 2.985s-2.982-1.341-2.982-2.985v-28.562z"/>
			</g>
			<g fill="#116F63">
				<path d="m1075.7 429.26h51.234c0.936 0 1.771 0.437 2.318 1.11l16.543 18.372c0.508 0.57 0.764 1.282 0.764 1.993l4e-3 77.275c0 2.125-0.867 4.058-2.266 5.451-1.396 1.397-3.33 2.266-5.451 2.266h-63.146c-2.125 0-4.057-0.868-5.455-2.262l-0.189-0.214c-1.281-1.381-2.072-3.222-2.072-5.241v-91.034c0-2.125 0.869-4.058 2.262-5.451 1.397-1.397 3.329-2.265 5.454-2.265zm49.91 5.966h-49.91c-0.477 0-0.916 0.201-1.234 0.518-0.314 0.316-0.516 0.756-0.516 1.233v91.034c0 0.437 0.158 0.835 0.422 1.143l0.094 0.091c0.318 0.321 0.758 0.519 1.234 0.519h63.146c0.477 0 0.914-0.197 1.234-0.519 0.32-0.32 0.518-0.756 0.518-1.233v-76.137l-14.988-16.649z"/>
				<path d="m1143.6 447.75c1.645 0 2.98 1.34 2.98 2.984 0 1.648-1.336 2.984-2.98 2.984h-16.648c-1.654 0-2.986-1.336-2.986-2.984v-18.491c0-1.648 1.332-2.984 2.986-2.984 1.643 0 2.98 1.336 2.98 2.984v15.507h13.668z"/>
				<path d="m1086.1 471.66c-1.648 0-2.98-1.341-2.98-2.985 0-1.647 1.332-2.984 2.98-2.984h42.363c1.643 0 2.979 1.337 2.979 2.984 0 1.645-1.336 2.985-2.979 2.985h-42.363z"/>
				<path d="m1086.1 490.47c-1.648 0-2.98-1.336-2.98-2.984s1.332-2.984 2.98-2.984h24.473c1.648 0 2.982 1.336 2.982 2.984s-1.334 2.984-2.982 2.984h-24.473z"/>
				<path d="m1123.3 490.47c-1.643 0-2.979-1.336-2.979-2.984s1.336-2.984 2.979-2.984h5.137c1.643 0 2.979 1.336 2.979 2.984s-1.336 2.984-2.979 2.984h-5.137z"/>
				<path d="m1086.1 507.31c-1.648 0-2.98-1.336-2.98-2.983 0-1.649 1.332-2.984 2.98-2.984h24.473c1.648 0 2.982 1.335 2.982 2.984 0 1.647-1.334 2.983-2.982 2.983h-24.473z"/>
				<path d="m1123.3 507.31c-1.643 0-2.979-1.336-2.979-2.983 0-1.649 1.336-2.984 2.979-2.984h5.137c1.643 0 2.979 1.335 2.979 2.984 0 1.647-1.336 2.983-2.979 2.983h-5.137z"/>
			</g>
			<g fill="#116F63">
				<path d="m1096 800.22h78.264c2.471 0 4.715 1.008 6.342 2.637l0.182 0.201c1.516 1.607 2.449 3.768 2.449 6.137v10.646c0 2.463-1.01 4.703-2.631 6.326l-0.016 0.014c-1.619 1.623-3.865 2.635-6.326 2.635h-78.264c-2.461 0-4.707-1.012-6.326-2.635-1.635-1.623-2.646-3.869-2.646-6.34v-10.646c0-2.471 1.012-4.715 2.629-6.338 1.628-1.629 3.872-2.637 6.343-2.637zm78.264 5.969h-78.264c-0.826 0-1.574 0.338-2.121 0.885s-0.883 1.295-0.883 2.121v10.646c0 0.822 0.336 1.574 0.883 2.121 0.539 0.547 1.295 0.885 2.121 0.885h78.264c0.826 0 1.582-0.338 2.125-0.881s0.879-1.299 0.879-2.125v-10.646c0-0.77-0.287-1.477-0.764-2.012l-0.119-0.109c-0.547-0.548-1.301-0.885-2.121-0.885z"/>
				<path d="m1115.1 803.2c0 1.645-1.34 2.984-2.984 2.984s-2.984-1.34-2.984-2.984v-9.857c0-2.463 1.012-4.707 2.629-6.33l0.018-0.014c1.619-1.619 3.865-2.631 6.326-2.631h34.068c2.457 0 4.701 1.012 6.326 2.631l0.012 0.014c1.619 1.623 2.631 3.867 2.631 6.33v9.857c0 1.645-1.336 2.984-2.984 2.984-1.645 0-2.984-1.34-2.984-2.984v-9.857c0-0.826-0.336-1.582-0.879-2.129-0.543-0.539-1.299-0.881-2.121-0.881h-34.068c-0.824 0-1.582 0.342-2.125 0.881-0.543 0.547-0.879 1.303-0.879 2.129v9.857z"/>
				<path d="m1169.9 826.19c-0.201-1.635 0.967-3.125 2.598-3.322 1.633-0.197 3.121 0.967 3.318 2.598l0.074 1.123v65.174c0 2.508-1.033 4.793-2.689 6.449-1.648 1.66-3.934 2.689-6.449 2.689h-63.135c-2.516 0-4.801-1.029-6.459-2.682l-0.188-0.209c-1.541-1.639-2.492-3.844-2.492-6.248v-65.174c0-0.371 0.025-0.748 0.074-1.123 0.197-1.631 1.686-2.795 3.316-2.598 1.633 0.197 2.801 1.688 2.6 3.322l-0.021 0.398v65.174c0 0.818 0.309 1.563 0.811 2.121l0.123 0.115c0.576 0.576 1.369 0.938 2.236 0.938h63.135c0.867 0 1.664-0.361 2.236-0.938 0.58-0.566 0.934-1.361 0.934-2.236-1e-3 -17.375 1.964-50.02-0.022-65.571z"/>
				<path d="m1120.3 883.05c0 1.648-1.34 2.984-2.984 2.984s-2.984-1.336-2.984-2.984v-42.359c0-1.646 1.34-2.982 2.984-2.982s2.984 1.336 2.984 2.982v42.359z"/>
				<path d="m1139.1 883.05c0 1.648-1.336 2.984-2.984 2.984-1.645 0-2.986-1.336-2.986-2.984v-24.473c0-1.648 1.342-2.984 2.986-2.984 1.648 0 2.984 1.336 2.984 2.984v24.473z"/>
				<path d="m1139.1 845.82c0 1.648-1.336 2.984-2.984 2.984-1.645 0-2.986-1.336-2.986-2.984v-5.131c0-1.646 1.342-2.982 2.986-2.982 1.648 0 2.984 1.336 2.984 2.982v5.131z"/>
				<path d="m1150 840.69c0-1.643 1.34-2.982 2.982-2.982 1.65 0 2.986 1.34 2.986 2.982v24.473c0 1.648-1.336 2.984-2.986 2.984-1.643 0-2.982-1.336-2.982-2.984v-24.473z"/>
				<path d="m1150 877.92c0-1.643 1.34-2.984 2.982-2.984 1.65 0 2.986 1.342 2.986 2.984v5.131c0 1.648-1.336 2.984-2.986 2.984-1.643 0-2.982-1.336-2.982-2.984v-5.131z"/>
			</g>
			<g fill="#116F63">
				<path d="m280.91 760.74h106.82c3.71 0 7.085 1.521 9.53 3.967 2.456 2.441 3.976 5.82 3.976 9.541v93.137c0 3.711-1.52 7.082-3.965 9.527l-0.011 0.014c-2.445 2.445-5.82 3.967-9.53 3.967h-106.82c-3.717 0-7.098-1.521-9.542-3.967l-0.177-0.189c-2.341-2.43-3.788-5.73-3.788-9.352v-93.137c0-3.721 1.519-7.1 3.965-9.541 2.444-2.445 5.825-3.967 9.542-3.967zm106.82 5.969h-106.82c-2.07 0-3.955 0.848-5.322 2.217-1.368 1.369-2.218 3.252-2.218 5.322v93.137c0 2.006 0.794 3.84 2.08 5.195l0.138 0.129c1.367 1.367 3.252 2.215 5.322 2.215h106.82c2.074 0 3.961-0.848 5.329-2.213 1.361-1.363 2.21-3.25 2.21-5.326v-93.137c0-2.07-0.849-3.953-2.216-5.322-1.362-1.369-3.248-2.217-5.323-2.217z"/>
				<path d="m270.39 796.44c-1.646 0-2.984-1.336-2.984-2.984s1.339-2.984 2.984-2.984h127.86c1.648 0 2.984 1.336 2.984 2.984s-1.336 2.984-2.984 2.984h-127.86z"/>
				<path d="m289.07 781.75c2.029 0 3.684-1.658 3.684-3.686 0-2.029-1.654-3.682-3.684-3.682-2.026 0-3.683 1.652-3.683 3.682 1e-3 2.028 1.657 3.686 3.683 3.686z"/>
				<path d="m304.06 781.75c2.029 0 3.687-1.658 3.687-3.686 0-2.029-1.657-3.682-3.687-3.682-2.026 0-3.683 1.652-3.683 3.682 1e-3 2.028 1.657 3.686 3.683 3.686z"/>
				<path d="m319.06 781.75c2.029 0 3.684-1.658 3.684-3.686 0-2.029-1.654-3.682-3.684-3.682-2.028 0-3.684 1.652-3.684 3.682 1e-3 2.028 1.656 3.686 3.684 3.686z"/>
				<path d="m311.43 814.89c1.165-1.164 3.057-1.164 4.22 0 1.165 1.168 1.165 3.055 0 4.223l-10.651 10.65 10.651 10.65c1.165 1.164 1.165 3.055 0 4.219-1.163 1.164-3.055 1.164-4.22 0l-12.761-12.76c-1.163-1.164-1.163-3.055 0-4.223l12.761-12.759z"/>
				<path d="m353 819.11c-1.165-1.168-1.165-3.055 0-4.223 1.164-1.164 3.055-1.164 4.22 0l12.761 12.76c1.165 1.168 1.165 3.059 0 4.223l-12.761 12.76c-1.165 1.164-3.056 1.164-4.22 0-1.165-1.164-1.165-3.055 0-4.219l10.651-10.65-10.651-10.651z"/>
				<path d="m338.34 815.48c0.837-1.414 2.662-1.883 4.079-1.049 1.415 0.836 1.885 2.664 1.048 4.078l-12.941 21.904c-0.837 1.414-2.661 1.881-4.078 1.047-1.416-0.838-1.885-2.664-1.048-4.078l12.94-21.902z"/>
			</g>
			<path d="m216.18 844.4c2.683 0.588 5.192 1.645 7.431 3.078l3.423-3.42c0.489-0.484 1.284-0.484 1.773 0l5.196 5.201c0.489 0.484 0.489 1.283 0 1.771l-3.42 3.42c1.437 2.24 2.494 4.748 3.083 7.434h4.832c0.69 0 1.254 0.563 1.254 1.254v7.35c0 0.689-0.563 1.254-1.254 1.254h-4.834c-0.587 2.684-1.645 5.188-3.081 7.432l3.42 3.42c0.489 0.49 0.489 1.283 0 1.771l-5.196 5.201c-0.489 0.484-1.286 0.484-1.773 0l-3.423-3.42c-2.238 1.436-4.748 2.49-7.431 3.078v4.836c0 0.689-0.563 1.254-1.253 1.254h-7.351c-0.692 0-1.256-0.564-1.256-1.254v-4.836c-2.683-0.588-5.188-1.643-7.429-3.082l-3.422 3.424c-0.487 0.484-1.284 0.484-1.771 0l-5.198-5.201c-0.489-0.488-0.489-1.281 0-1.771l3.42-3.42c-1.438-2.24-2.495-4.748-3.081-7.432h-4.837c-0.688 0-1.251-0.564-1.251-1.254v-7.35c0-0.691 0.563-1.254 1.251-1.254h4.837c0.586-2.686 1.643-5.193 3.081-7.434l-3.42-3.42c-0.489-0.488-0.489-1.287 0-1.771l5.198-5.201c0.487-0.484 1.282-0.484 1.771 0l3.422 3.426c2.24-1.436 4.746-2.496 7.429-3.084v-4.834c0-0.691 0.563-1.254 1.256-1.254h7.351c0.69 0 1.253 0.563 1.253 1.254v4.834zm-4.929 10.118c-6.789 0-12.295 5.504-12.295 12.295s5.506 12.297 12.295 12.297c6.791 0 12.296-5.506 12.296-12.297s-5.505-12.295-12.296-12.295z" fill="#116F63"/>
			
				
					<path d="m418.1 297.23h485.4c1.523 1.974 2.428 4.443 2.428 7.128s-0.904 5.155-2.428 7.124h-485.4c-3.916 0-7.12-3.202-7.12-7.124-1e-3 -3.922 3.204-7.128 7.12-7.128z" fill="#F79222"/>
					<path d="m894.27 292.7c3.758 0 7.1 1.78 9.234 4.534l0.068 0.094 0.045 0.059 0.025 0.037 0.074 0.094 0.066 0.095 0.064 0.095 0.066 0.099 0.029 0.037 0.037 0.058 0.064 0.095 0.051 0.078 0.016 0.024 0.057 0.099 0.066 0.099 8e-3 0.017 0.051 0.086 0.061 0.099 0.037 0.062 0.025 0.041 0.057 0.104 0.055 0.099 0.053 0.106 0.059 0.103 0.016 0.046 0.037 0.062 0.053 0.106 0.037 0.083 0.012 0.02 0.051 0.107 0.049 0.106 8e-3 0.021 0.041 0.091 0.047 0.107 0.027 0.062 0.021 0.045 0.045 0.11 0.041 0.107 0.049 0.115 0.033 0.111 0.016 0.041 0.029 0.069 0.037 0.111 0.033 0.09 8e-3 0.021 0.074 0.23 8e-3 0.024 0.025 0.087 0.031 0.115 0.025 0.069 0.014 0.049 0.027 0.111 0.033 0.119 0.029 0.12 0.027 0.114 0.01 0.05 0.016 0.069 0.029 0.116 0.02 0.094 6e-3 0.024 0.02 0.115 0.025 0.123v0.025l0.02 0.095 0.021 0.119 8e-3 0.073 8e-3 0.05 0.016 0.119 0.018 0.123 0.018 0.12 0.012 0.123 4e-3 0.049 8e-3 0.07 8e-3 0.127 8e-3 0.099 0.01 0.021 8e-3 0.128 8e-3 0.119v0.127l4e-3 0.124 4e-3 0.073v0.054l4e-3 0.123v0.251l-4e-3 0.128v0.049l-4e-3 0.074-4e-3 0.127v0.124l-8e-3 0.123-8e-3 0.124-0.01 0.024-8e-3 0.099-8e-3 0.123-8e-3 0.074-4e-3 0.049-0.012 0.119-0.018 0.124-0.018 0.123-0.016 0.119-8e-3 0.045-8e-3 0.079-0.021 0.114-0.02 0.099v0.024l-0.025 0.119-0.02 0.12-6e-3 0.024-0.02 0.095-0.029 0.114-0.016 0.07-0.01 0.05-0.027 0.115-0.029 0.118-0.033 0.116-0.027 0.114-0.014 0.05-0.025 0.069-0.031 0.111-0.025 0.09-8e-3 0.025-0.037 0.115-0.037 0.11-8e-3 0.024-0.033 0.091-0.037 0.111-0.029 0.07-0.016 0.041-0.033 0.11-0.049 0.111-0.041 0.111-0.045 0.11-0.021 0.042-0.027 0.065-0.047 0.106-0.041 0.086-8e-3 0.025-0.049 0.106-0.051 0.103-0.012 0.025-0.037 0.082-0.053 0.106-0.037 0.063-0.016 0.045-0.059 0.099-0.053 0.106-0.055 0.103-0.057 0.104-0.025 0.041-0.037 0.062-0.061 0.099-0.051 0.083-8e-3 0.02-0.066 0.099-0.057 0.095-0.016 0.024-0.051 0.078-0.064 0.095-0.037 0.062-0.029 0.037-0.066 0.099-0.064 0.095-0.066 0.095-0.074 0.095-0.025 0.037-0.045 0.053-0.068 0.095c-2.139 2.755-5.488 4.538-9.234 4.538-6.436 0-11.658-5.225-11.658-11.662-1e-3 -6.439 5.222-11.66 11.658-11.66z" fill="#fff"/>
				
				<path d="m1066.1 297.23h-162.6c1.523 1.974 2.428 4.443 2.428 7.128s-0.904 5.155-2.428 7.124h162.6c3.918 0 7.125-3.202 7.125-7.124s-3.207-7.128-7.125-7.128z" fill="#083A47"/>
			
			
				<path d="m402.16 407.29c0-3.293-2.672-5.965-5.965-5.965-3.295 0-5.967 2.672-5.967 5.965v33.15c0 3.72-1.513 7.095-3.948 9.532h-0.022c-2.448 2.446-5.826 3.972-9.531 3.972h-10.13c-3.295 0-5.967 2.668-5.967 5.965 0 3.293 2.672 5.965 5.967 5.965h10.13c7 0 13.36-2.861 17.966-7.465l-0.01-0.013c4.614-4.621 7.478-10.98 7.478-17.956v-33.15z" fill="#2DBBAA"/>
				<path d="m363.92 533.92c9.842 0 17.891-8.053 17.891-17.895v-99.713c0-9.838-8.049-17.891-17.891-17.891-9.841 0-17.89 8.053-17.89 17.891v99.713c0 9.842 8.049 17.895 17.89 17.895z" fill="#63C6BF"/>
				<path d="m328.54 519.84h70.767c2.606 0 4.436 2.13 4.125 4.74l-5.511 46.169c-0.309 2.605-2.744 4.735-5.349 4.735h-57.298c-2.604 0-5.039-2.125-5.351-4.735l-5.508-46.169c-0.309-2.61 1.519-4.74 4.125-4.74z" fill="#083A47"/>
				<path d="m321.3 509.85h85.245c4.269 0 7.761 3.494 7.761 7.761 0 4.271-3.492 7.762-7.761 7.762h-85.245c-4.27 0-7.76-3.49-7.76-7.762 0-4.267 3.49-7.761 7.76-7.761z" fill="#083A47"/>
				<path d="m384.97 529.45c8.23 0 13.115-2.311 11.239 13.426l-3.813 31.958c-0.027 0.226-0.068 0.443-0.126 0.657h0.3c2.604 0 5.04-2.13 5.349-4.735l5.416-45.384h-78.825l0.486 4.078h59.974z" fill="#001A22"/>
				<path d="m409.18 513.8c0 3.852-2.843 7.07-6.534 7.663-0.399 0.062-0.811 0.094-1.228 0.094h-85.243c-0.566 0-1.117-0.058-1.65-0.177 1.33 2.376 3.875 3.992 6.779 3.992h85.245c4.269 0 7.761-3.49 7.761-7.762 0-3.704-2.629-6.823-6.112-7.58 0.623 1.114 0.982 2.401 0.982 3.77z" fill="#08313D"/>
				<path d="m371.02 416.32v93.53h10.789v-93.53c0-9.838-8.049-17.891-17.891-17.891-1.878 0-3.691 0.296-5.396 0.839 7.229 2.298 12.498 9.093 12.498 17.052z" fill="#43BEAD"/>
				<path d="m318.31 430.18c0-3.296 2.671-5.964 5.966-5.964 3.294 0 5.966 2.668 5.966 5.964v33.15c0 3.721 1.514 7.096 3.949 9.529h0.022c2.448 2.45 5.825 3.975 9.531 3.975h10.129c3.295 0 5.967 2.668 5.967 5.966 0 3.293-2.672 5.964-5.967 5.964h-10.129c-7.001 0-13.362-2.86-17.967-7.465l0.013-0.013c-4.617-4.62-7.48-10.979-7.48-17.956v-33.15z" fill="#63C6BF"/>
				<path d="m327.62 479.2zm-1.827 2.092zm19.796 5.373c-7.001 0-13.362-2.861-17.957-7.478-4.614-4.62-7.479-10.98-7.479-17.957v-33.149c0-0.999 0.244-1.94 0.681-2.767-1.525 1.081-2.521 2.861-2.521 4.871v33.15c0 6.977 2.863 13.336 7.468 17.969 4.604 4.604 10.966 7.465 17.967 7.465h10.129c2.296 0 4.29-1.299 5.286-3.198-0.972 0.687-2.162 1.094-3.444 1.094h-10.13z" fill="#2DBBAA"/>
			
		
		<path d="m956.64 188.19h102.65c6.758 0 12.283 5.529 12.283 12.288 0 6.758-5.525 12.283-12.283 12.283h-102.65c-6.758 0-12.283-5.525-12.283-12.283-1e-3 -6.758 5.525-12.288 12.283-12.288z" fill="#F79222"/>
		<path d="m968.83 141.19c1.967 0.433 3.803 1.205 5.443 2.254l2.504-2.504c0.357-0.357 0.941-0.357 1.295 0l3.807 3.807c0.357 0.357 0.357 0.941 0 1.299l-2.504 2.503c1.053 1.641 1.824 3.475 2.256 5.439h3.537c0.51 0 0.92 0.411 0.92 0.916v5.382c0 0.506-0.41 0.917-0.92 0.917h-3.537c-0.432 1.964-1.203 3.802-2.256 5.442l2.504 2.503c0.357 0.358 0.357 0.938 0 1.3l-3.807 3.802c-0.354 0.358-0.938 0.358-1.295 0l-2.504-2.503c-1.641 1.053-3.477 1.825-5.443 2.257v3.535c0 0.506-0.41 0.921-0.916 0.921h-5.381c-0.502 0-0.916-0.415-0.916-0.921v-3.539c-1.967-0.428-3.799-1.205-5.439-2.253l-2.504 2.503c-0.357 0.358-0.941 0.358-1.299 0l-3.803-3.802c-0.361-0.362-0.361-0.941 0-1.3l2.5-2.503c-1.049-1.641-1.824-3.479-2.252-5.442h-3.541c-0.506 0-0.916-0.411-0.916-0.917v-5.382c0-0.505 0.41-0.916 0.916-0.916h3.541c0.428-1.965 1.199-3.799 2.252-5.439l-2.5-2.503c-0.361-0.357-0.361-0.941 0-1.299l3.803-3.807c0.357-0.357 0.941-0.357 1.299 0l2.504 2.508c1.641-1.053 3.473-1.825 5.439-2.258v-3.539c0-0.506 0.414-0.916 0.916-0.916h5.381c0.506 0 0.916 0.41 0.916 0.916v3.539zm-3.605 7.404c-4.969 0-8.998 4.033-8.998 9.003s4.029 8.998 8.998 8.998c4.971 0 9-4.028 9-8.998s-4.03-9.003-9-9.003z" fill="#F16464"/>
		<path d="m993.37 142.46h35.764c1.723 0 3.133 1.409 3.133 3.141 0 1.727-1.41 3.137-3.133 3.137h-35.764c-1.73 0-3.141-1.41-3.141-3.137 0-1.732 1.411-3.141 3.141-3.141z" fill="#33A4AC"/>
		<path d="m993.37 159.66h16.25c1.727 0 3.137-1.41 3.137-3.137v-4e-3c0-1.723-1.41-3.137-3.137-3.137h-16.25c-1.727 0-3.137 1.414-3.137 3.137v4e-3c0 1.727 1.411 3.137 3.137 3.137z" fill="#33A4AC"/>
		<g fill="#fff">
			<path d="m955.49 193.1h4e-3c2.434 0 4.428 1.993 4.428 4.431v5.903c0 2.438-1.994 4.432-4.428 4.432h-4e-3c-2.439 0-4.428-1.994-4.428-4.432v-5.903c1e-3 -2.438 1.989-4.431 4.428-4.431z"/>
			<path d="m968.32 193.1c2.443 0 4.432 1.993 4.432 4.431v5.903c0 2.438-1.988 4.432-4.432 4.432-2.438 0-4.43-1.994-4.43-4.432v-5.903c1e-3 -2.438 1.993-4.431 4.43-4.431z"/>
			<path d="m981.15 193.1h4e-3c2.434 0 4.428 1.993 4.428 4.431v5.903c0 2.438-1.994 4.432-4.428 4.432h-4e-3c-2.438 0-4.432-1.994-4.432-4.432v-5.903c1e-3 -2.438 1.995-4.431 4.432-4.431z"/>
			<path d="m993.98 193.1c2.439 0 4.43 1.993 4.43 4.431v5.903c0 2.438-1.99 4.432-4.43 4.432-2.439 0-4.434-1.994-4.434-4.432v-5.903c1e-3 -2.438 1.995-4.431 4.434-4.431z"/>
			<path d="m1006.8 193.1c2.439 0 4.432 1.993 4.432 4.431v5.903c0 2.438-1.992 4.432-4.432 4.432-2.438 0-4.432-1.994-4.432-4.432v-5.903c0-2.438 1.994-4.431 4.432-4.431z"/>
			<path d="m1019.6 193.1c2.438 0 4.432 1.993 4.432 4.431v5.903c0 2.438-1.994 4.432-4.432 4.432s-4.432-1.994-4.432-4.432v-5.903c0-2.438 1.994-4.431 4.432-4.431z"/>
			<path d="m1032.5 193.1c2.438 0 4.432 1.993 4.432 4.431v5.903c0 2.438-1.994 4.432-4.432 4.432s-4.432-1.994-4.432-4.432v-5.903c0-2.438 1.994-4.431 4.432-4.431z"/>
		</g>
		<path d="m1277.3 256.56h-125.81c-4.959 0-9.012 4.053-9.012 9.011 0 4.953 4.053 9.007 9.012 9.007h125.81c4.949 0 9.004-4.054 9.004-9.007 0-4.959-4.055-9.011-9.004-9.011z" fill="#1CA593"/>
		<path d="m1277.3 284.68h-125.81c-4.959 0-9.012 4.053-9.012 9.007v4e-3c0 4.954 4.053 9.007 9.012 9.007h125.81c4.949 0 9.004-4.053 9.004-9.007v-4e-3c0-4.955-4.055-9.007-9.004-9.007z" fill="#1CA593"/>
		<path d="m1277.3 312.8h-125.81c-4.959 0-9.012 4.054-9.012 9.007v4e-3c0 4.95 4.053 9.007 9.012 9.007h125.81c4.949 0 9.004-4.057 9.004-9.007v-4e-3c0-4.953-4.055-9.007-9.004-9.007z" fill="#1CA593"/>
		<path d="m1221.5 317.01h-68.154c-2.643 0-4.801 2.158-4.801 4.798 0 2.644 2.158 4.802 4.801 4.802h68.154c2.645 0 4.797-2.158 4.797-4.802 0-2.64-2.152-4.798-4.797-4.798z" fill="#63C6BF"/>
		<path d="m1259.1 288.89h-105.83c-2.643 0-4.801 2.158-4.801 4.798 0 2.644 2.158 4.802 4.801 4.802h105.83c2.641 0 4.797-2.158 4.797-4.802 0-2.64-2.156-4.798-4.797-4.798z" fill="#63C6BF"/>
		<path d="m1203.7 260.77h-50.408c-2.643 0-4.801 2.157-4.801 4.801 0 2.639 2.158 4.798 4.801 4.798h50.408c2.643 0 4.801-2.159 4.801-4.798 0-2.643-2.158-4.801-4.801-4.801z" fill="#63C6BF"/>
		
			<path d="m1329.9 334.18h39.037c4.355 0 7.916 3.56 7.916 7.917v39.041c0 4.354-3.561 7.914-7.916 7.914h-39.037c-4.359 0-7.918-3.561-7.918-7.914v-39.041c0-4.358 3.558-7.917 7.918-7.917z" fill="#63C6BF"/>
			<path d="m1329.9 427.54h39.037c4.355 0 7.916 3.564 7.916 7.917v39.041c0 4.354-3.561 7.918-7.916 7.918h-39.037c-4.359 0-7.918-3.564-7.918-7.918v-39.041c0-4.353 3.558-7.917 7.918-7.917z" fill="#63C6BF"/>
			<path d="m1353.1 345.21c1.965 0.432 3.799 1.204 5.438 2.257l2.504-2.504c0.357-0.357 0.941-0.357 1.299 0l3.803 3.803c0.357 0.357 0.357 0.941 0 1.299l-2.504 2.504c1.053 1.641 1.826 3.478 2.258 5.438h3.539c0.502 0 0.918 0.415 0.918 0.921v5.377c0 0.506-0.416 0.921-0.918 0.921h-3.539c-0.432 1.965-1.205 3.799-2.258 5.438l2.504 2.504c0.357 0.357 0.357 0.941 0 1.299l-3.803 3.807c-0.357 0.354-0.945 0.354-1.299 0l-2.504-2.504c-1.639 1.049-3.473 1.821-5.438 2.253v3.54c0 0.506-0.416 0.916-0.92 0.916h-5.377c-0.512 0-0.922-0.41-0.922-0.916v-3.54c-1.965-0.432-3.799-1.204-5.434-2.257l-2.51 2.508c-0.357 0.354-0.939 0.354-1.299-4e-3l-3.801-3.803c-0.357-0.357-0.357-0.941-4e-3 -1.299l2.506-2.504c-1.051-1.64-1.824-3.474-2.256-5.438h-3.539c-0.502 0-0.918-0.415-0.918-0.921v-5.377c0-0.506 0.416-0.921 0.918-0.921h3.539c0.432-1.961 1.205-3.798 2.256-5.438l-2.506-2.504c-0.354-0.357-0.354-0.941 4e-3 -1.299l3.801-3.803c0.359-0.357 0.941-0.357 1.299 0l2.51 2.504c1.635-1.049 3.469-1.825 5.434-2.253v-3.539c0-0.506 0.41-0.922 0.922-0.922h5.377c0.504 0 0.92 0.416 0.92 0.922v3.535zm-3.61 7.407c-4.971 0-9.004 4.029-9.004 8.999s4.033 9.003 9.004 9.003 9.002-4.033 9.002-9.003-4.031-8.999-9.002-8.999z" fill="#1CA593"/>
			<g fill="#1CA593">
				
					<path d="m1341.1 445.97c2.482 0 4.506-2.022 4.506-4.501 0-2.483-2.023-4.506-4.506-4.506-2.48 0-4.506 2.022-4.506 4.506 0 2.478 2.025 4.501 4.506 4.501z"/>
					<path d="m1341.1 459.48c2.482 0 4.506-2.022 4.506-4.501 0-2.483-2.023-4.506-4.506-4.506-2.48 0-4.506 2.022-4.506 4.506 0 2.479 2.025 4.501 4.506 4.501z"/>
					<path d="m1341.1 473c2.482 0 4.506-2.022 4.506-4.506 0-2.479-2.023-4.506-4.506-4.506-2.48 0-4.506 2.027-4.506 4.506 0 2.483 2.025 4.506 4.506 4.506z"/>
				
				
					<path d="m1357.8 445.97c2.482 0 4.506-2.022 4.506-4.501 0-2.483-2.023-4.506-4.506-4.506-2.479 0-4.506 2.022-4.506 4.506 0 2.478 2.027 4.501 4.506 4.501z"/>
					<path d="m1357.8 459.48c2.482 0 4.506-2.022 4.506-4.501 0-2.483-2.023-4.506-4.506-4.506-2.479 0-4.506 2.022-4.506 4.506 0 2.479 2.027 4.501 4.506 4.501z"/>
					<path d="m1357.8 473c2.482 0 4.506-2.022 4.506-4.506 0-2.479-2.023-4.506-4.506-4.506-2.479 0-4.506 2.027-4.506 4.506 0 2.483 2.027 4.506 4.506 4.506z"/>
				
			</g>
			<g fill="#1CA593">
				<path d="m1351.4 400.24c1.936 0 3.514-1.578 3.514-3.519 0-1.936-1.578-3.515-3.514-3.515-1.938 0-3.516 1.579-3.516 3.515 1e-3 1.941 1.579 3.519 3.516 3.519z"/>
				<path d="m1351.4 410.79c1.936 0 3.514-1.579 3.514-3.515 0-1.937-1.578-3.52-3.514-3.52-1.938 0-3.516 1.583-3.516 3.52 1e-3 1.936 1.579 3.515 3.516 3.515z"/>
				<path d="m1351.4 421.34c1.936 0 3.514-1.579 3.514-3.516 0-1.936-1.578-3.518-3.514-3.518-1.938 0-3.516 1.582-3.516 3.518 1e-3 1.937 1.579 3.516 3.516 3.516z"/>
			</g>
		
		<path d="m357.72 208.02h-102.65c-6.758 0-12.285 5.525-12.285 12.283s5.527 12.284 12.285 12.284h102.65c6.759 0 12.285-5.526 12.285-12.284 1e-3 -6.757-5.525-12.283-12.284-12.283z" fill="#F79222"/>
		<path d="m345.53 161.01c-1.961 0.432-3.799 1.205-5.439 2.253l-2.503-2.504c-0.357-0.357-0.941-0.357-1.299 0l-3.803 3.807c-0.36 0.357-0.36 0.941 0 1.3l2.503 2.503c-1.052 1.641-1.827 3.474-2.257 5.439h-3.537c-0.506 0-0.918 0.41-0.918 0.916v5.381c0 0.506 0.412 0.917 0.918 0.917h3.537c0.43 1.965 1.205 3.803 2.257 5.443l-2.503 2.503c-0.36 0.357-0.36 0.941 0 1.299l3.803 3.803c0.357 0.357 0.941 0.357 1.299 0l2.503-2.503c1.641 1.052 3.479 1.824 5.439 2.257v3.539c0 0.501 0.413 0.916 0.919 0.916h5.381c0.506 0 0.918-0.415 0.918-0.916v-3.544c1.964-0.428 3.797-1.204 5.439-2.252l2.503 2.503c0.358 0.357 0.942 0.357 1.3 0l3.802-3.803c0.36-0.357 0.36-0.941 0-1.299l-2.503-2.503c1.053-1.641 1.827-3.479 2.257-5.443h3.539c0.504 0 0.917-0.411 0.917-0.917v-5.381c0-0.506-0.413-0.916-0.917-0.916h-3.539c-0.43-1.966-1.204-3.799-2.257-5.439l2.503-2.503c0.36-0.358 0.36-0.942 0-1.3l-3.802-3.807c-0.357-0.357-0.941-0.357-1.3 0l-2.503 2.508c-1.643-1.052-3.476-1.825-5.439-2.257v-3.539c0-0.506-0.412-0.917-0.918-0.917h-5.381c-0.506 0-0.919 0.411-0.919 0.917v3.539zm3.61 7.408c4.97 0 8.998 4.028 8.998 8.998 0 4.971-4.028 8.999-8.998 8.999-4.971 0-9.001-4.028-9.001-8.999 0-4.97 4.03-8.998 9.001-8.998z" fill="#F16464"/>
		<path d="m320.99 162.29h-35.768c-1.724 0-3.137 1.41-3.137 3.141 0 1.727 1.413 3.141 3.137 3.141h35.768c1.726 0 3.139-1.414 3.139-3.141 0-1.731-1.413-3.141-3.139-3.141z" fill="#33A4AC"/>
		<path d="m321 179.48h-16.251c-1.727 0-3.139-1.41-3.139-3.137v-5e-3c0-1.723 1.412-3.136 3.139-3.136h16.251c1.724 0 3.137 1.413 3.137 3.136v5e-3c0 1.727-1.413 3.137-3.137 3.137z" fill="#33A4AC"/>
		<g fill="#fff">
			<path d="m358.87 212.92c-2.438 0-4.432 1.994-4.432 4.432v5.903c0 2.438 1.994 4.432 4.432 4.432s4.432-1.994 4.432-4.432v-5.903c0-2.438-1.994-4.432-4.432-4.432z"/>
			<path d="m346.04 212.92h-2e-3c-2.438 0-4.432 1.994-4.432 4.432v5.903c0 2.438 1.994 4.432 4.432 4.432h2e-3c2.438 0 4.43-1.994 4.43-4.432v-5.903c0-2.438-1.993-4.432-4.43-4.432z"/>
			<path d="m333.21 212.92h-2e-3c-2.438 0-4.429 1.994-4.429 4.432v5.903c0 2.438 1.991 4.432 4.429 4.432h2e-3c2.438 0 4.43-1.994 4.43-4.432v-5.903c0-2.438-1.993-4.432-4.43-4.432z"/>
			<path d="m320.38 212.92h-2e-3c-2.438 0-4.43 1.994-4.43 4.432v5.903c0 2.438 1.992 4.432 4.43 4.432h2e-3c2.438 0 4.43-1.994 4.43-4.432v-5.903c0-2.438-1.993-4.432-4.43-4.432z"/>
			<path d="m307.55 212.92h-3e-3c-2.438 0-4.43 1.994-4.43 4.432v5.903c0 2.438 1.992 4.432 4.43 4.432h3e-3c2.438 0 4.429-1.994 4.429-4.432v-5.903c-1e-3 -2.438-1.992-4.432-4.429-4.432z"/>
			<path d="m294.72 212.92c-2.439 0-4.431 1.994-4.431 4.432v5.903c0 2.438 1.991 4.432 4.43 4.432h1e-3c2.438 0 4.43-1.994 4.43-4.432v-5.903c-1e-3 -2.438-1.993-4.432-4.43-4.432z"/>
			<path d="m281.89 212.92h-2e-3c-2.438 0-4.429 1.994-4.429 4.432v5.903c0 2.438 1.991 4.432 4.429 4.432h2e-3c2.438 0 4.43-1.994 4.43-4.432v-5.903c-1e-3 -2.438-1.992-4.432-4.43-4.432z"/>
		</g>
		<path d="m118.06 255.51h87.105c4.955 0 9.009 4.05 9.009 9.007 0 4.954-4.054 9.012-9.009 9.012h-87.105c-4.955 0-9.009-4.058-9.009-9.012 0-4.957 4.053-9.007 9.009-9.007z" fill="#1CA593"/>
		<path d="m118.06 283.63h87.105c4.955 0 9.009 4.054 9.009 9.007v5e-3c0 4.953-4.054 9.006-9.009 9.006h-87.105c-4.955 0-9.009-4.053-9.009-9.006v-5e-3c0-4.953 4.053-9.007 9.009-9.007z" fill="#1CA593"/>
		<path d="m118.06 311.74h87.105c4.955 0 9.009 4.054 9.009 9.007v5e-3c0 4.953-4.054 9.007-9.009 9.007h-87.105c-4.955 0-9.009-4.054-9.009-9.007v-5e-3c0-4.953 4.053-9.007 9.009-9.007z" fill="#1CA593"/>
		<path d="m135.21 315.96h68.157c2.64 0 4.8 2.158 4.8 4.802 0 2.639-2.16 4.797-4.8 4.797h-68.157c-2.642 0-4.8-2.158-4.8-4.797 0-2.644 2.158-4.802 4.8-4.802z" fill="#63C6BF"/>
		<path d="m184.89 287.84h18.482c2.64 0 4.8 2.158 4.8 4.802 0 2.639-2.16 4.797-4.8 4.797h-18.482c-2.639 0-4.799-2.158-4.799-4.797 0-2.644 2.16-4.802 4.799-4.802z" fill="#63C6BF"/>
		<path d="m152.96 259.72h50.413c2.64 0 4.8 2.158 4.8 4.797 0 2.64-2.16 4.802-4.8 4.802h-50.413c-2.642 0-4.8-2.162-4.8-4.802 0-2.639 2.158-4.797 4.8-4.797z" fill="#63C6BF"/>
	
</g>
</svg>
